<svg width="64" height="88" viewBox="0 0 64 88" fill="none" xmlns="http://www.w3.org/2000/svg">
<path fill-rule="evenodd" clip-rule="evenodd" d="M0 27.4744L20.5897 30.5049C25.6574 31.2507 29.7655 36.3685 29.7655 41.9357V77.7087C29.7655 82.1254 27.5493 85.6472 24.2719 87.1753L30.1582 84.5762C33.4356 83.0481 35.6518 79.5263 35.6518 75.1096V39.3367C35.6518 33.7694 31.5437 28.6517 26.476 27.9058L5.88631 24.8754L0 27.4744Z" fill="#00020A" fill-opacity="0.6"/>
<path fill-rule="evenodd" clip-rule="evenodd" d="M24.2719 87.1753C22.7296 87.8944 20.9523 88.172 19.0604 87.8935L3.05862 85.5384C1.36938 85.2897 0 83.5839 0 81.7281V27.4744L5.88631 24.8754V79.129C5.88631 80.9848 7.25569 82.6907 8.94492 82.9393L24.9467 85.2944C26.8386 85.5729 28.6159 85.2953 30.1582 84.5762L24.2719 87.1753Z" fill="#00020A" fill-opacity="0.6"/>
<path d="M0 27.4745L20.5897 30.5049C25.6574 31.2508 29.7655 36.3685 29.7655 41.9358V77.7087C29.7655 84.2038 24.9727 88.7637 19.0604 87.8935L3.05862 85.5384C1.36938 85.2898 0 83.5839 0 81.7281V27.4745Z" fill="#FBD1D1"/>
<path fill-rule="evenodd" clip-rule="evenodd" d="M3.43091 3.1141C4.39412 2.665 5.50409 2.49164 6.68565 2.66555L36.8526 7.10555C48.5948 8.83378 58.1137 20.692 58.1137 33.5918C58.1137 42.3635 53.7122 49.3581 47.203 52.3929L53.0893 49.7939C59.5985 46.759 64 39.7644 64 30.9927C64 18.093 54.4811 6.23472 42.7389 4.50649L12.572 0.0664849C11.3904 -0.107419 10.2804 0.0659398 9.31722 0.515039L3.43091 3.1141Z" fill="#010102" fill-opacity="0.6"/>
<path fill-rule="evenodd" clip-rule="evenodd" d="M47.203 52.393C44.1399 53.8211 40.6101 54.3724 36.8525 53.8194L0 48.3954V9.02625C0 6.26792 1.38408 4.06844 3.4309 3.11411L9.31721 0.515045C7.27039 1.46938 5.88631 3.66886 5.88631 6.42719V45.7963L42.7389 51.2203C46.4964 51.7734 50.0262 51.2221 53.0893 49.7939L47.203 52.393Z" fill="#010102" fill-opacity="0.6"/>
<path d="M0 9.02624C0 4.96988 2.99326 2.1221 6.68564 2.66555L36.8525 7.10555C48.5948 8.83378 58.1137 20.692 58.1137 33.5918C58.1137 46.4914 48.5948 55.5476 36.8525 53.8194L0 48.3954V9.02624Z" fill="#F26A6C"/>
</svg>
