<svg width="28" height="28" viewBox="0 0 28 28" fill="none" xmlns="http://www.w3.org/2000/svg">
<path fill-rule="evenodd" clip-rule="evenodd" d="M7.5625 2C6.93261 2 6.32852 2.25286 5.88312 2.70294C5.43772 3.15303 5.1875 3.76348 5.1875 4.4V5.6C4.87256 5.6 4.57051 5.72643 4.34781 5.95147C4.12511 6.17652 4 6.48174 4 6.8C4 7.11826 4.12511 7.42348 4.34781 7.64853C4.57051 7.87357 4.87256 8 5.1875 8V9.2C4.87256 9.2 4.57051 9.32643 4.34781 9.55147C4.12511 9.77652 4 10.0817 4 10.4C4 10.7183 4.12511 11.0235 4.34781 11.2485C4.57051 11.4736 4.87256 11.6 5.1875 11.6V12.8C4.87256 12.8 4.57051 12.9264 4.34781 13.1515C4.12511 13.3765 4 13.6817 4 14C4 14.3183 4.12511 14.6235 4.34781 14.8485C4.57051 15.0736 4.87256 15.2 5.1875 15.2V16.4C4.87256 16.4 4.57051 16.5264 4.34781 16.7515C4.12511 16.9765 4 17.2817 4 17.6C4 17.9183 4.12511 18.2235 4.34781 18.4485C4.57051 18.6736 4.87256 18.8 5.1875 18.8V20C4.87256 20 4.57051 20.1264 4.34781 20.3515C4.12511 20.5765 4 20.8817 4 21.2C4 21.5183 4.12511 21.8235 4.34781 22.0485C4.57051 22.2736 4.87256 22.4 5.1875 22.4V23.6C5.1875 24.2365 5.43772 24.847 5.88312 25.2971C6.32852 25.7471 6.93261 26 7.5625 26H20.625C21.2549 26 21.859 25.7471 22.3044 25.2971C22.7498 24.847 23 24.2365 23 23.6V4.4C23 3.76348 22.7498 3.15303 22.3044 2.70294C21.859 2.25286 21.2549 2 20.625 2H7.5625ZM11.125 11.6C11.125 10.6452 11.5003 9.72955 12.1684 9.05442C12.8365 8.37928 13.7427 8 14.6875 8C15.6323 8 16.5385 8.37928 17.2066 9.05442C17.8747 9.72955 18.25 10.6452 18.25 11.6C18.25 12.5548 17.8747 13.4705 17.2066 14.1456C16.5385 14.8207 15.6323 15.2 14.6875 15.2C13.7427 15.2 12.8365 14.8207 12.1684 14.1456C11.5003 13.4705 11.125 12.5548 11.125 11.6ZM9.9375 20C9.9375 19.0452 10.3128 18.1295 10.9809 17.4544C11.649 16.7793 12.5552 16.4 13.5 16.4H15.875C16.8198 16.4 17.726 16.7793 18.3941 17.4544C19.0622 18.1295 19.4375 19.0452 19.4375 20C19.4375 20.3183 19.3124 20.6235 19.0897 20.8485C18.867 21.0736 18.5649 21.2 18.25 21.2H11.125C10.8101 21.2 10.508 21.0736 10.2853 20.8485C10.0626 20.6235 9.9375 20.3183 9.9375 20Z" fill="url(#paint0_linear_289_3830)"/>
<defs>
<linearGradient id="paint0_linear_289_3830" x1="4" y1="2" x2="28.6589" y2="32.9489" gradientUnits="userSpaceOnUse">
<stop stop-color="#F26A6C"/>
<stop offset="0.865385" stop-color="#F9B7B8"/>
<stop offset="1" stop-color="white"/>
</linearGradient>
</defs>
</svg>
