<svg width="28" height="28" viewBox="0 0 28 28" fill="none" xmlns="http://www.w3.org/2000/svg">
<path d="M20.0028 10.0011C20.0028 8.40952 19.3705 6.88311 18.2451 5.75768C17.1197 4.63226 15.5933 4 14.0017 4C12.4101 4 10.8837 4.63226 9.75824 5.75768C8.63281 6.88311 8.00056 8.40952 8.00056 10.0011C8.00056 17.0024 5 19.0028 5 19.0028H23.0033C23.0033 19.0028 20.0028 17.0024 20.0028 10.0011Z" fill="#FBD1D1"/>
<path d="M15.7321 23.0029C15.5563 23.3061 15.3039 23.5577 15.0002 23.7326C14.6965 23.9075 14.3522 23.9996 14.0018 23.9996C13.6514 23.9996 13.3071 23.9075 13.0034 23.7326C12.6997 23.5577 12.4473 23.3061 12.2715 23.0029" fill="#FBD1D1"/>
</svg>
