<svg width="28" height="28" viewBox="0 0 28 28" fill="none" xmlns="http://www.w3.org/2000/svg">
<path d="M20.0028 11.0011C20.0028 9.40952 19.3705 7.88311 18.2451 6.75768C17.1197 5.63226 15.5933 5 14.0017 5C12.4101 5 10.8837 5.63226 9.75824 6.75768C8.63281 7.88311 8.00056 9.40952 8.00056 11.0011C8.00056 18.0024 5 20.0028 5 20.0028H23.0033C23.0033 20.0028 20.0028 18.0024 20.0028 11.0011Z" fill="url(#paint0_linear_707_2010)"/>
<path d="M15.7321 24.0029C15.5563 24.3061 15.3039 24.5577 15.0002 24.7326C14.6965 24.9075 14.3522 24.9996 14.0018 24.9996C13.6514 24.9996 13.3071 24.9075 13.0034 24.7326C12.6997 24.5577 12.4473 24.3061 12.2715 24.0029" fill="url(#paint1_linear_707_2010)"/>
<circle cx="19" cy="6" r="3" fill="#C22B20"/>
<defs>
<linearGradient id="paint0_linear_707_2010" x1="8" y1="9.87593" x2="35.1343" y2="19.3949" gradientUnits="userSpaceOnUse">
<stop stop-color="white"/>
<stop offset="0.341346" stop-color="#F9BFC0"/>
<stop offset="1" stop-color="#F8AAAB"/>
</linearGradient>
<linearGradient id="paint1_linear_707_2010" x1="12.8482" y1="24.3268" x2="15.7331" y2="27.2554" gradientUnits="userSpaceOnUse">
<stop stop-color="white"/>
<stop offset="0.341346" stop-color="#F9BFC0"/>
<stop offset="1" stop-color="#F8AAAB"/>
</linearGradient>
</defs>
</svg>
