<svg width="28" height="28" viewBox="0 0 28 28" fill="none" xmlns="http://www.w3.org/2000/svg">
<path d="M20.0028 10.0011C20.0028 8.40952 19.3705 6.88311 18.2451 5.75768C17.1197 4.63226 15.5933 4 14.0017 4C12.4101 4 10.8837 4.63226 9.75824 5.75768C8.63281 6.88311 8.00056 8.40952 8.00056 10.0011C8.00056 17.0024 5 19.0028 5 19.0028H23.0033C23.0033 19.0028 20.0028 17.0024 20.0028 10.0011Z" fill="#FBD1D1"/>
<path d="M16 21C15.7968 21.6083 15.505 22.1132 15.154 22.4642C14.803 22.8153 14.4051 23 14 23C13.5949 23 13.197 22.8153 12.846 22.4642C12.495 22.1132 12.2032 21.6083 12 21" fill="#FBD1D1"/>
</svg>
