<svg width="17" height="18" viewBox="0 0 17 18" fill="none" xmlns="http://www.w3.org/2000/svg">
<path d="M1 8.04474C1 7.2207 1.9532 6.76256 2.59668 7.27734V7.27734C3.07002 7.65601 3.76996 7.52007 4.06714 6.99175L5.07994 5.19122C6.02004 3.51992 8.54566 4.00154 8.80475 5.90151L9.38455 10.1533C9.45069 10.6384 9.86496 11 10.3545 11V11C10.7461 11 11.1 10.7666 11.2543 10.4067L12.2414 8.10329C12.4092 7.7118 12.7001 7.38567 13.0699 7.17435V7.17435C14.3755 6.42829 16 7.37102 16 8.87477V16C16 17.1046 15.1046 18 14 18H3C1.89543 18 1 17.1046 1 16V8.04474Z" fill="#ADFFE3"/>
<path d="M1.53564 7.58601H3.88207C3.98087 7.58487 4.07759 7.55748 4.16231 7.50665C4.24704 7.45582 4.31672 7.38336 4.36422 7.29672L6.29279 3.43958C6.34032 3.34355 6.41609 3.26436 6.50994 3.21265C6.60379 3.16093 6.71121 3.13918 6.81779 3.1503C6.92394 3.15747 7.02525 3.19739 7.10776 3.26455C7.19028 3.33171 7.24993 3.42281 7.2785 3.5253L9.66779 11.4753C9.69914 11.5831 9.76359 11.6784 9.85203 11.7476C9.94047 11.8168 10.0484 11.8565 10.1606 11.861C10.2658 11.8575 10.3676 11.8231 10.4533 11.7622C10.5391 11.7012 10.605 11.6163 10.6428 11.5182L12.1106 7.92887C12.1511 7.82818 12.2205 7.74181 12.3102 7.68075C12.3999 7.61969 12.5057 7.58671 12.6142 7.58601H15.4642" stroke="#00C380" stroke-width="1.5" stroke-linecap="round" stroke-linejoin="round"/>
</svg>
