<svg width="37" height="18" viewBox="0 0 37 18" fill="none" xmlns="http://www.w3.org/2000/svg">
<rect width="37" height="18" rx="4" fill="#F26A6C"/>
<path d="M13.7656 4.42188C13.7617 4.87891 13.9277 5.32031 14.2637 5.74609C14.6035 6.16797 15.0625 6.52734 15.6406 6.82422C16.2188 7.11719 16.8477 7.30859 17.5273 7.39844L17.0938 8.3125C16.5234 8.22266 15.9824 8.06641 15.4707 7.84375C14.959 7.62109 14.5059 7.3457 14.1113 7.01758C13.7168 6.68945 13.4082 6.32227 13.1855 5.91602C12.959 6.32227 12.6484 6.68945 12.2539 7.01758C11.8633 7.3457 11.4141 7.62109 10.9062 7.84375C10.3984 8.0625 9.85938 8.21875 9.28906 8.3125L8.84375 7.39844C9.52344 7.30859 10.1504 7.11719 10.7246 6.82422C11.2988 6.53125 11.7539 6.17383 12.0898 5.75195C12.4297 5.32617 12.6016 4.88281 12.6055 4.42188V3.84766H13.7656V4.42188ZM17.9609 10.2578H13.6953V13.9961H12.6055V10.2578H8.38672V9.34375H17.9609V10.2578ZM27.5117 9.74219H26.3984V7.08203H24.4414V6.16797H26.3984V3.49609H27.5117V9.74219ZM23.9961 10.0352C24.7266 10.0352 25.3574 10.1133 25.8887 10.2695C26.4238 10.4258 26.834 10.6523 27.1191 10.9492C27.4043 11.2461 27.5469 11.6016 27.5469 12.0156C27.5469 12.4297 27.4043 12.7832 27.1191 13.0762C26.834 13.373 26.4258 13.5996 25.8945 13.7559C25.3633 13.9121 24.7305 13.9922 23.9961 13.9961C23.2617 13.9922 22.627 13.9121 22.0918 13.7559C21.5605 13.5996 21.1523 13.373 20.8672 13.0762C20.582 12.7832 20.4414 12.4297 20.4453 12.0156C20.4414 11.6016 20.582 11.2461 20.8672 10.9492C21.1523 10.6523 21.5605 10.4258 22.0918 10.2695C22.627 10.1133 23.2617 10.0352 23.9961 10.0352ZM23.9961 10.9023C23.2227 10.9023 22.6211 11 22.1914 11.1953C21.7617 11.3867 21.5469 11.6602 21.5469 12.0156C21.5469 12.25 21.6445 12.4512 21.8398 12.6191C22.0352 12.7832 22.3164 12.9082 22.6836 12.9941C23.0508 13.0801 23.4883 13.1211 23.9961 13.1172C24.5039 13.1211 24.9414 13.0801 25.3086 12.9941C25.6758 12.9082 25.957 12.7832 26.1523 12.6191C26.3477 12.4512 26.4453 12.25 26.4453 12.0156C26.4453 11.6602 26.2305 11.3867 25.8008 11.1953C25.3711 11 24.7695 10.9023 23.9961 10.9023ZM22.5195 5.34766C22.5195 5.79297 22.6211 6.22461 22.8242 6.64258C23.0273 7.06055 23.3203 7.43359 23.7031 7.76172C24.0859 8.08594 24.5352 8.33594 25.0508 8.51172L24.4766 9.39062C23.8984 9.1875 23.3945 8.88867 22.9648 8.49414C22.5391 8.0957 22.209 7.63281 21.9746 7.10547C21.7441 7.70312 21.4023 8.22656 20.9492 8.67578C20.4961 9.12109 19.9609 9.45703 19.3438 9.68359L18.7578 8.79297C19.2891 8.60938 19.752 8.3418 20.1465 7.99023C20.5449 7.63477 20.8496 7.22852 21.0605 6.77148C21.2754 6.31445 21.3828 5.84375 21.3828 5.35938V5.125H19.1094V4.22266H24.7695V5.125H22.5195V5.34766Z" fill="white"/>
</svg>
