<svg width="24" height="24" viewBox="0 0 24 24" fill="none" xmlns="http://www.w3.org/2000/svg">
<path d="M3 6H21V9.1C19.96 9.1 19.35 9.72 19.2 9.87L19.19 9.89L19 10.07V10C18.47 10 17.96 9.79 17.59 9.41C17.21 9.04 17 8.53 17 8H7C7 8.53 6.79 9.04 6.41 9.41C6.04 9.79 5.53 10 5 10V14C5.53 14 6.04 14.21 6.41 14.59C6.79 14.96 7 15.47 7 16H13.07L11.07 18H3V6ZM12 9C12.8 9 13.56 9.32 14.12 9.88C14.3984 10.1584 14.6192 10.4889 14.7699 10.8527C14.9206 11.2164 14.9981 11.6063 14.9981 12C14.9981 12.3937 14.9206 12.7836 14.7699 13.1473C14.6192 13.5111 14.3984 13.8416 14.12 14.12C13.8416 14.3984 13.5111 14.6192 13.1473 14.7699C12.7836 14.9206 12.3937 14.9981 12 14.9981C11.6063 14.9981 11.2164 14.9206 10.8527 14.7699C10.4889 14.6192 10.1584 14.3984 9.88 14.12C9.45951 13.701 9.17291 13.1666 9.05654 12.5845C8.94017 12.0024 8.99928 11.3989 9.22637 10.8505C9.45346 10.302 9.83831 9.83335 10.3321 9.50391C10.8259 9.17447 11.4064 8.99909 12 9ZM22.7 12.6L21.4 11.3C21.3 11.2 21.2 11.1 21 11.1C20.8 11.1 20.7 11.2 20.6 11.3L19.6 12.3L21.7 14.4L22.7 13.4C22.9 13.2 22.9 12.8 22.7 12.6ZM15.1 21L21.1 14.9L19.1 12.8L13 18.9V21H15.1Z" fill="#F26A6C"/>
</svg>
