<svg id="Layer_1" enable-background="new 0 0 100 100" height="300" viewBox="0 0 100 100" width="300" xmlns="http://www.w3.org/2000/svg" version="1.1" xmlns:xlink="http://www.w3.org/1999/xlink" xmlns:svgjs="http://svgjs.dev/svgjs"><g width="100%" height="100%" transform="matrix(1,0,0,1,0,0)"><path d="m37.0667419 77.0334244c-19.0605259 0-34.5667419-15.507206-34.5667419-34.5677376s15.506216-34.5667419 34.5667419-34.5667419 34.5677338 15.5062141 34.5677338 34.5667419c0 .6697845-.0218277 1.3266678-.0525894 1.9845428l-3.55233-.1686859c.0287781-.6023102.0486221-1.2036247.0486221-1.8158569 0-17.0988083-13.9116325-31.0104446-31.0114365-31.0104446-17.0988064 0-31.0104427 13.9116354-31.0104427 31.0104446 0 17.0998039 13.9116364 31.0114403 31.0104427 31.0114403.6122322 0 1.2135506-.0198441 1.8158569-.0486221l.1686859 3.55233c-.657875.0307617-1.3147582.0525894-1.9845428.0525894z" fill="#6b6b6b" fill-opacity="1" data-original-color="#ffbb33ff" stroke="none" stroke-opacity="1" style=""/><path d="m39.9383736 58.6406937c-.4147682 0-.8344994-.0297699-1.2562141-.0912895l-10.2461872-1.484436.5100288-3.5185928 10.2461872 1.484436c2.8210258.4058418 5.4336739-1.5489349 5.8414955-4.3620224.4068336-2.8130875-1.5499268-5.432682-4.3630142-5.8414955l-7.7387161-1.2075958c-2.2832165-.3314171-4.3173714-1.5409966-5.7105198-3.4054718-1.3921566-1.8644753-1.9746189-4.1595993-1.6402225-6.4616661.3334026-2.3030605 1.5429802-4.3372154 3.4074574-5.7303638 1.8644753-1.3921566 4.1605892-1.9756107 6.461668-1.6412163l10.2461853 1.4854298-.5100288 3.5185909-10.2461853-1.4854279c-1.3633804-.1954784-2.7208061.1478481-3.8232193.9724255-1.103405.8235836-1.8198242 2.0272102-2.0172863 3.389595-.1974621 1.3633804.1478481 2.7208061.9714336 3.8242111.8235836 1.103405 2.0282021 1.8198242 3.3905869 2.0162964l7.7387199 1.2085838c4.7331314.6866531 8.0403709 5.1151581 7.352726 9.8681335-.6290972 4.3322525-4.3610307 7.4618759-8.614895 7.4618759z" fill="#6b6b6b" fill-opacity="1" data-original-color="#ffbb33ff" stroke="none" stroke-opacity="1" style=""/><g fill="#49a4ff"><path d="m34.9621391 92.1010513-2.1512451-2.1512375 3.5027161-14.2480164.4693451-.8325195 45.5372887-45.5372849c1.2403336-1.2413311 2.8894882-1.925005 4.6448135-1.925005 1.7553329 0 3.4054794.6836739 4.645813 1.925005l3.9690857 3.9690819c2.5600586 2.5610504 2.5600586 6.7295799 0 9.2906303l-45.5372887 45.5372926-.8325157.4693451zm4.6864929-15.0686187-2.6831017 10.9139862 10.9139862-2.6830978 45.1860275-45.1860275c1.173851-1.1748505 1.173851-3.086956 0-4.2618027l-3.9690857-3.9690838c-1.1391296-1.1391277-3.122673-1.1391277-4.2618027 0z" fill="#f26a6c" fill-opacity="1" data-original-color="#49a4ffff" stroke="none" stroke-opacity="1"/><path d="m80.734 34.801h3.556v15.196h-3.556z" transform="matrix(.707 -.707 .707 .707 -5.813 70.763)" fill="#f26a6c" fill-opacity="1" data-original-color="#49a4ffff" stroke="none" stroke-opacity="1"/><path d="m47.4062042 87.9930573-3.3439522-4.1129685-.3919487-1.2820129.2957001-3.2526627-6.3326721-1.4884033.8136597-3.4610443 7.836956 1.8416595 1.3643722 1.8912659-.3701171 4.0702972 2.8865165 3.5513306z" fill="#f26a6c" fill-opacity="1" data-original-color="#49a4ffff" stroke="none" stroke-opacity="1"/></g><path d="m35.289 22.307h3.556v6.107h-3.556z" fill="#6b6b6b" fill-opacity="1" data-original-color="#ffbb33ff" stroke="none" stroke-opacity="1" style=""/><path d="m35.289 56.518h3.556v6.107h-3.556z" fill="#6b6b6b" fill-opacity="1" data-original-color="#ffbb33ff" stroke="none" stroke-opacity="1" style=""/></g></svg>