<svg width="20" height="20" viewBox="0 0 20 20" fill="none" xmlns="http://www.w3.org/2000/svg">
<path d="M11.8182 20L9.27273 16.5854H4.54545C4.30435 16.5854 4.07312 16.4826 3.90263 16.2996C3.73214 16.1167 3.63636 15.8685 3.63636 15.6098V4.97854C3.63636 4.71979 3.73214 4.47164 3.90263 4.28868C4.07312 4.10571 4.30435 4.00293 4.54545 4.00293H19.0909C19.332 4.00293 19.5632 4.10571 19.7337 4.28868C19.9042 4.47164 20 4.71979 20 4.97854V15.6098C20 15.8685 19.9042 16.1167 19.7337 16.2996C19.5632 16.4826 19.332 16.5854 19.0909 16.5854H14.3636L11.8182 20ZM13.49 14.6341H18.1818V5.95415H5.45455V14.6341H10.1464L11.8182 16.8761L13.49 14.6341ZM0.909091 0H16.3636V1.95122H1.81818V12.6829H0V0.97561C0 0.716862 0.0957789 0.468712 0.266267 0.285749C0.436754 0.102787 0.667985 0 0.909091 0Z" fill="#FDE9E9"/>
</svg>
