<svg width="21" height="20" viewBox="0 0 21 20" fill="none" xmlns="http://www.w3.org/2000/svg">
<path d="M12.3182 20L9.77273 16.5854H5.04545C4.80435 16.5854 4.57312 16.4826 4.40263 16.2996C4.23214 16.1167 4.13636 15.8685 4.13636 15.6098V4.97854C4.13636 4.71979 4.23214 4.47164 4.40263 4.28868C4.57312 4.10571 4.80435 4.00293 5.04545 4.00293H19.5909C19.832 4.00293 20.0632 4.10571 20.2337 4.28868C20.4042 4.47164 20.5 4.71979 20.5 4.97854V15.6098C20.5 15.8685 20.4042 16.1167 20.2337 16.2996C20.0632 16.4826 19.832 16.5854 19.5909 16.5854H14.8636L12.3182 20ZM13.99 14.6341H18.6818V5.95415H5.95455V14.6341H10.6464L12.3182 16.8761L13.99 14.6341ZM1.40909 0H16.8636V1.95122H2.31818V12.6829H0.5V0.97561C0.5 0.716862 0.595779 0.468712 0.766267 0.285749C0.936754 0.102787 1.16798 0 1.40909 0Z" fill="#F26A6C"/>
</svg>
