<svg width="12" height="12" viewBox="0 0 12 12" fill="none" xmlns="http://www.w3.org/2000/svg">
<g clip-path="url(#clip0_598_2246)">
<path d="M8.54981 1.0498H3.4498C2.12432 1.0498 1.0498 2.12432 1.0498 3.4498V8.54981C1.0498 9.87529 2.12432 10.9498 3.4498 10.9498H8.54981C9.87529 10.9498 10.9498 9.87529 10.9498 8.54981V3.4498C10.9498 2.12432 9.87529 1.0498 8.54981 1.0498Z" fill="#F26A6C"/>
<path d="M5.43113 8.00578C5.29283 8.00578 5.15483 7.95328 5.04923 7.84768L3.25583 6.05428C3.04493 5.84338 3.04493 5.50138 3.25583 5.29048C3.46673 5.07988 3.80873 5.07988 4.01963 5.29048L5.43113 6.70228L7.98083 4.15258C8.19203 3.94198 8.53403 3.94198 8.74463 4.15258C8.95553 4.36348 8.95553 4.70548 8.74463 4.91638L5.81303 7.84768C5.70743 7.95298 5.56943 8.00578 5.43113 8.00578Z" fill="white"/>
</g>
<defs>
<clipPath id="clip0_598_2246">
<rect width="12" height="12" fill="white"/>
</clipPath>
</defs>
</svg>
