<svg width="20" height="20" viewBox="0 0 20 20" fill="none" xmlns="http://www.w3.org/2000/svg">
<path d="M8.83342 11.5003L7.04175 9.70866C6.88897 9.55588 6.69453 9.47949 6.45842 9.47949C6.2223 9.47949 6.02786 9.55588 5.87508 9.70866C5.7223 9.86144 5.64592 10.0559 5.64592 10.292C5.64592 10.5281 5.7223 10.7225 5.87508 10.8753L8.25008 13.2503C8.41675 13.417 8.61119 13.5003 8.83342 13.5003C9.05564 13.5003 9.25008 13.417 9.41675 13.2503L14.1251 8.54199C14.2779 8.38921 14.3542 8.19477 14.3542 7.95866C14.3542 7.72255 14.2779 7.5281 14.1251 7.37533C13.9723 7.22255 13.7779 7.14616 13.5417 7.14616C13.3056 7.14616 13.1112 7.22255 12.9584 7.37533L8.83342 11.5003ZM10.0001 18.3337C8.8473 18.3337 7.76397 18.1148 6.75008 17.677C5.73619 17.2392 4.85425 16.6456 4.10425 15.8962C3.35425 15.1467 2.76064 14.2648 2.32342 13.2503C1.88619 12.2359 1.6673 11.1525 1.66675 10.0003C1.66619 8.8481 1.88508 7.76477 2.32342 6.75033C2.76175 5.73588 3.35536 4.85394 4.10425 4.10449C4.85314 3.35505 5.73508 2.76144 6.75008 2.32366C7.76508 1.88588 8.84842 1.66699 10.0001 1.66699C11.1517 1.66699 12.2351 1.88588 13.2501 2.32366C14.2651 2.76144 15.147 3.35505 15.8959 4.10449C16.6448 4.85394 17.2387 5.73588 17.6776 6.75033C18.1165 7.76477 18.3351 8.8481 18.3334 10.0003C18.3317 11.1525 18.1129 12.2359 17.6767 13.2503C17.2406 14.2648 16.647 15.1467 15.8959 15.8962C15.1448 16.6456 14.2629 17.2395 13.2501 17.6778C12.2373 18.1162 11.154 18.3348 10.0001 18.3337Z" fill="white"/>
</svg>
