<svg width="65" height="64" viewBox="0 0 65 64" fill="none" xmlns="http://www.w3.org/2000/svg">
<path d="M0.5 32C0.5 27.7977 1.3277 23.6365 2.93585 19.7541C4.54401 15.8717 6.90111 12.3441 9.87258 9.37258C12.8441 6.40111 16.3717 4.04401 20.2541 2.43586C24.1365 0.827705 28.2977 0 32.5 0C36.7023 0 40.8635 0.827705 44.7459 2.43586C48.6283 4.04401 52.1559 6.40111 55.1274 9.37258C58.0989 12.3441 60.456 15.8717 62.0641 19.7541C63.6723 23.6365 64.5 27.7977 64.5 32C64.5 40.4869 61.1286 48.6263 55.1274 54.6274C49.1263 60.6286 40.9869 64 32.5 64C24.0131 64 15.8737 60.6286 9.87258 54.6274C3.87142 48.6263 0.5 40.4869 0.5 32Z" fill="url(#paint0_linear_289_3680)"/>
<path d="M43.8066 22.2078L28.5 37.5572L21.0546 30.1118C20.8067 29.8639 20.5123 29.6672 20.1884 29.533C19.8645 29.3989 19.5173 29.3298 19.1666 29.3298C18.816 29.3298 18.4688 29.3989 18.1448 29.533C17.8209 29.6672 17.5266 29.8639 17.2786 30.1118C17.0307 30.3598 16.834 30.6541 16.6998 30.9781C16.5656 31.302 16.4966 31.6492 16.4966 31.9998C16.4966 32.3505 16.5656 32.6977 16.6998 33.0216C16.834 33.3456 17.0307 33.6399 17.2786 33.8878L26.612 43.2212C26.8597 43.4695 27.1539 43.6665 27.4779 43.801C27.8019 43.9354 28.1492 44.0046 28.5 44.0046C28.8507 44.0046 29.198 43.9354 29.522 43.801C29.846 43.6665 30.1402 43.4695 30.388 43.2212L47.5826 25.9732C48.0677 25.4696 48.3356 24.7956 48.3285 24.0963C48.3215 23.3971 48.0401 22.7287 47.545 22.2349C47.0498 21.7412 46.3806 21.4617 45.6813 21.4566C44.9821 21.4515 44.3089 21.7213 43.8066 22.2078Z" fill="url(#paint1_linear_289_3680)"/>
<defs>
<linearGradient id="paint0_linear_289_3680" x1="2.788" y1="12" x2="46.9533" y2="57.888" gradientUnits="userSpaceOnUse">
<stop stop-color="#F8AAAB"/>
<stop offset="1" stop-color="#F26A6C"/>
</linearGradient>
<linearGradient id="paint1_linear_289_3680" x1="22.4733" y1="23.7278" x2="27.5719" y2="49.1198" gradientUnits="userSpaceOnUse">
<stop stop-color="white"/>
<stop offset="1" stop-color="#E3FFD9"/>
</linearGradient>
</defs>
</svg>
