<svg width="18" height="18" viewBox="0 0 18 18" fill="none" xmlns="http://www.w3.org/2000/svg">
<g clip-path="url(#clip0_678_2049)">
<path d="M8.32385 6.22957L10.568 4.25182C10.8457 4.00702 11.2624 4.00702 11.54 4.25182L16.1012 8.27167C16.2596 8.41117 16.3501 8.61187 16.3501 8.82292V14.4349C16.3501 15.2467 15.6917 15.905 14.8799 15.905H3.12005C2.30825 15.905 1.6499 15.2467 1.6499 14.4349V2.83207C1.6499 2.19937 2.396 1.86232 2.87075 2.28082L7.3514 6.22957C7.62905 6.47437 8.0462 6.47437 8.32385 6.22957Z" fill="#B3D9FF"/>
<path d="M2.87124 2.23741L7.35189 6.18616C7.62954 6.43096 8.04624 6.43096 8.32389 6.18616L10.568 4.20841C10.8457 3.96361 11.2624 3.96361 11.54 4.20841L16.1012 8.22781C16.2596 8.36731 16.3501 8.56801 16.3501 8.77906C16.3501 9.52471 15.4703 9.92206 14.911 9.42886L11.54 6.45796C11.2624 6.21316 10.8457 6.21316 10.568 6.45796L8.32389 8.43571C8.04624 8.68051 7.62954 8.68051 7.35189 8.43571L1.65039 3.41146V2.78911C1.65039 2.15641 2.39694 1.81891 2.87124 2.23741Z" fill="#4FA5FF"/>
</g>
<defs>
<clipPath id="clip0_678_2049">
<rect width="18" height="18" fill="white"/>
</clipPath>
</defs>
</svg>
