<svg height="300" viewBox="0 0 24 24" width="300" xmlns="http://www.w3.org/2000/svg" version="1.1" xmlns:xlink="http://www.w3.org/1999/xlink" xmlns:svgjs="http://svgjs.dev/svgjs"><g width="100%" height="100%" transform="matrix(1,0,0,1,0,0)"><g id="Lineal_Color" data-name="Lineal Color"><path d="m21 5h-18a1 1 0 0 0 0 2h1.06l.71 11.25a4 4 0 0 0 4 3.75h6.48a4 4 0 0 0 4-3.75l.69-11.25h1.06a1 1 0 0 0 0-2z" fill="#f26a6c" fill-opacity="1" data-original-color="#e63946ff" stroke="none" stroke-opacity="1" style=""/><g fill="#070e44"><path d="m21 5h-3v-1a3 3 0 0 0 -3-3h-6a3 3 0 0 0 -3 3v1h-3a1 1 0 0 0 0 2h.06l.71 11.31a5 5 0 0 0 5 4.69h6.48a5 5 0 0 0 5-4.69l.69-11.31h.06a1 1 0 0 0 0-2zm-13-1a1 1 0 0 1 1-1h6a1 1 0 0 1 1 1v1h-8zm10.24 14.19a3 3 0 0 1 -3 2.81h-6.48a3 3 0 0 1 -3-2.81l-.7-11.19h13.88z" fill="#2c2c2c" fill-opacity="1" data-original-color="#070e44ff" stroke="none" stroke-opacity="1" style=""/><path d="m10 10a1 1 0 0 0 -1 1v6a1 1 0 0 0 2 0v-6a1 1 0 0 0 -1-1z" fill="#2c2c2c" fill-opacity="1" data-original-color="#070e44ff" stroke="none" stroke-opacity="1" style=""/><path d="m14 10a1 1 0 0 0 -1 1v6a1 1 0 0 0 2 0v-6a1 1 0 0 0 -1-1z" fill="#2c2c2c" fill-opacity="1" data-original-color="#070e44ff" stroke="none" stroke-opacity="1" style=""/><path d="m21 5h-3v-1a3 3 0 0 0 -3-3h-6a3 3 0 0 0 -3 3v1h-3a1 1 0 0 0 0 2h.06l.71 11.31a5 5 0 0 0 5 4.69h6.48a5 5 0 0 0 5-4.69l.69-11.31h.06a1 1 0 0 0 0-2zm-13-1a1 1 0 0 1 1-1h6a1 1 0 0 1 1 1v1h-8zm10.24 14.19a3 3 0 0 1 -3 2.81h-6.48a3 3 0 0 1 -3-2.81l-.7-11.19h13.88z" fill="#2c2c2c" fill-opacity="1" data-original-color="#070e44ff" stroke="none" stroke-opacity="1" style=""/><path d="m10 10a1 1 0 0 0 -1 1v6a1 1 0 0 0 2 0v-6a1 1 0 0 0 -1-1z" fill="#2c2c2c" fill-opacity="1" data-original-color="#070e44ff" stroke="none" stroke-opacity="1" style=""/><path d="m14 10a1 1 0 0 0 -1 1v6a1 1 0 0 0 2 0v-6a1 1 0 0 0 -1-1z" fill="#2c2c2c" fill-opacity="1" data-original-color="#070e44ff" stroke="none" stroke-opacity="1" style=""/></g></g></g></svg>