<svg height="300" viewBox="0 0 24 24" width="300" xmlns="http://www.w3.org/2000/svg" version="1.1" xmlns:xlink="http://www.w3.org/1999/xlink" xmlns:svgjs="http://svgjs.dev/svgjs"><g width="100%" height="100%" transform="matrix(1,0,0,1,0,0)"><g id="Lineal_Color" data-name="Lineal Color"><path d="m8.59 11.17a2 2 0 0 0 -.59 1.42v1.41a2 2 0 0 0 2 2h1.41a2 2 0 0 0 1.42-.59l8.58-8.58a2 2 0 0 0 0-2.83l-1.41-1.41a2 2 0 0 0 -2.83 0z" fill="#fbd1d1" fill-opacity="1" data-original-color="#fcbf49ff" stroke="none" stroke-opacity="1"/><path d="m21.41 6.83-1.56 1.57-4.24-4.24 1.56-1.57a2 2 0 0 1 2.83 0l1.41 1.41a2 2 0 0 1 0 2.83z" fill="#f26a6c" fill-opacity="1" data-original-color="#e63946ff" stroke="none" stroke-opacity="1"/><g fill="#070e44"><path d="m22 11a1 1 0 0 0 -1 1v6a3 3 0 0 1 -3 3h-12a3 3 0 0 1 -3-3v-12a3 3 0 0 1 3-3h6a1 1 0 0 0 0-2h-6a5 5 0 0 0 -5 5v12a5 5 0 0 0 5 5h12a5 5 0 0 0 5-5v-6a1 1 0 0 0 -1-1z" fill="#2c2c2c" fill-opacity="1" data-original-color="#070e44ff" stroke="none" stroke-opacity="1"/><path d="m7.88 10.46a3 3 0 0 0 -.88 2.13v1.41a3 3 0 0 0 3 3h1.41a3 3 0 0 0 2.13-.88l8.58-8.58a3 3 0 0 0 0-4.25l-1.41-1.41a3 3 0 0 0 -4.25 0zm11.41-7.17 1.42 1.42a1 1 0 0 1 0 1.41l-.86.88-2.85-2.85.86-.86a1 1 0 0 1 1.43 0zm-10.29 9.3a1 1 0 0 1 .29-.71l6.31-6.31 2.83 2.83-6.31 6.31a1 1 0 0 1 -.71.29h-1.41a1 1 0 0 1 -1-1z" fill="#2c2c2c" fill-opacity="1" data-original-color="#070e44ff" stroke="none" stroke-opacity="1"/><path d="m22 11a1 1 0 0 0 -1 1v6a3 3 0 0 1 -3 3h-12a3 3 0 0 1 -3-3v-12a3 3 0 0 1 3-3h6a1 1 0 0 0 0-2h-6a5 5 0 0 0 -5 5v12a5 5 0 0 0 5 5h12a5 5 0 0 0 5-5v-6a1 1 0 0 0 -1-1z" fill="#2c2c2c" fill-opacity="1" data-original-color="#070e44ff" stroke="none" stroke-opacity="1"/><path d="m7.88 10.46a3 3 0 0 0 -.88 2.13v1.41a3 3 0 0 0 3 3h1.41a3 3 0 0 0 2.13-.88l8.58-8.58a3 3 0 0 0 0-4.25l-1.41-1.41a3 3 0 0 0 -4.25 0zm11.41-7.17 1.42 1.42a1 1 0 0 1 0 1.41l-.86.88-2.85-2.85.86-.86a1 1 0 0 1 1.43 0zm-10.29 9.3a1 1 0 0 1 .29-.71l6.31-6.31 2.83 2.83-6.31 6.31a1 1 0 0 1 -.71.29h-1.41a1 1 0 0 1 -1-1z" fill="#2c2c2c" fill-opacity="1" data-original-color="#070e44ff" stroke="none" stroke-opacity="1"/></g></g></g></svg>