<svg id="Layer_1" enable-background="new 0 0 511.343 511.343" height="300" viewBox="0 0 511.343 511.343" width="300" xmlns="http://www.w3.org/2000/svg" version="1.1" xmlns:xlink="http://www.w3.org/1999/xlink" xmlns:svgjs="http://svgjs.dev/svgjs"><g width="100%" height="100%" transform="matrix(1,0,0,1,0,0)"><path d="m149 384.005c-35.105 0-63.666 28.561-63.666 63.667s28.561 63.667 63.666 63.667c35.106 0 63.667-28.561 63.667-63.667s-28.561-63.667-63.667-63.667z" fill="#e0e0e0" fill-opacity="1" data-original-color="#d8d6d6ff" stroke="none" stroke-opacity="1" style=""/><path d="m383.667 384.005c-35.106 0-63.667 28.561-63.667 63.667s28.561 63.667 63.667 63.667 63.667-28.561 63.667-63.667-28.561-63.667-63.667-63.667z" fill="#e0e0e0" fill-opacity="1" data-original-color="#d8d6d6ff" stroke="none" stroke-opacity="1" style=""/><path d="m490.334 128.002h-415.997c-12.192 0-21.84 10.367-20.943 22.542l14.12 191.78c.812 11.027 10.008 19.459 20.925 19.459.964 0 136.927-8.011 360.458-21.147 9.162-.538 16.914-6.966 19.141-15.87l42.67-170.67c3.308-13.236-6.71-26.094-20.374-26.094z" fill="#e0e0e0" fill-opacity="1" data-original-color="#ece2e2ff" stroke="none" stroke-opacity="1" style=""/><path d="m277 .005c-70.396 0-127.666 57.271-127.666 127.667s57.27 127.667 127.666 127.667 127.667-57.271 127.667-127.667-57.271-127.667-127.667-127.667z" fill="#fbd1d1" fill-opacity="1" data-original-color="#fe929fff" stroke="none" stroke-opacity="1" style=""/><path d="m447.667 426.005h-298.525c-41.154 0-75.747-30.83-80.466-71.715-.049-.416 1.094 12.263-24.208-269.618h-23.468c-11.598 0-21-9.402-21-21s9.402-21 21-21h42.667c10.87 0 19.944 8.296 20.916 19.123l25.844 287.917c2.378 19.567 18.979 34.293 38.715 34.293h298.525c11.598 0 21 9.402 21 21s-9.402 21-21 21z" fill="#8c8c8c" fill-opacity="1" data-original-color="#ccccccff" stroke="none" stroke-opacity="1"/><path d="m309 148.672h-64c-11.598 0-21-9.402-21-21s9.402-21 21-21h64c11.598 0 21 9.402 21 21s-9.402 21-21 21z" fill="#f26a6c" fill-opacity="1" data-original-color="#d86c83ff" stroke="none" stroke-opacity="1" style=""/></g></svg>