<svg width="20" height="20" viewBox="0 0 20 20" fill="none" xmlns="http://www.w3.org/2000/svg">
<path d="M16.0011 8.09581C16.0011 7.8434 15.8957 7.60133 15.7081 7.42285C15.5206 7.24437 15.2662 7.1441 15.0009 7.1441H3.4088L5.70922 4.96469C5.89756 4.78548 6.00337 4.54242 6.00337 4.28898C6.00337 4.03554 5.89756 3.79247 5.70922 3.61326C5.52088 3.43405 5.26544 3.33337 4.99909 3.33337C4.73274 3.33337 4.4773 3.43405 4.28896 3.61326L0.288239 7.4201C0.149456 7.55393 0.0554425 7.72388 0.0180616 7.9085C-0.0193193 8.09312 0.00160719 8.28414 0.0782005 8.45746C0.153234 8.63126 0.280655 8.78004 0.444405 8.88504C0.608155 8.99005 0.800906 9.04658 0.998367 9.04752H15.0009C15.2662 9.04752 15.5206 8.94725 15.7081 8.76877C15.8957 8.59029 16.0011 8.34822 16.0011 8.09581ZM19.9218 11.541C19.8468 11.3672 19.7193 11.2184 19.5556 11.1134C19.3918 11.0084 19.1991 10.9519 19.0016 10.9509H4.99909C4.73383 10.9509 4.47943 11.0512 4.29186 11.2297C4.10429 11.4082 3.99891 11.6502 3.99891 11.9026C3.99891 12.1551 4.10429 12.3971 4.29186 12.5756C4.47943 12.7541 4.73383 12.8544 4.99909 12.8544H16.5912L14.2908 15.0338C14.197 15.1222 14.1226 15.2275 14.0718 15.3435C14.0211 15.4594 13.9949 15.5838 13.9949 15.7095C13.9949 15.8351 14.0211 15.9595 14.0718 16.0755C14.1226 16.1915 14.197 16.2967 14.2908 16.3852C14.3838 16.4744 14.4944 16.5452 14.6163 16.5935C14.7381 16.6418 14.8689 16.6667 15.0009 16.6667C15.1329 16.6667 15.2637 16.6418 15.3856 16.5935C15.5074 16.5452 15.6181 16.4744 15.711 16.3852L19.7118 12.5784C19.8505 12.4445 19.9446 12.2746 19.9819 12.09C20.0193 11.9053 19.9984 11.7143 19.9218 11.541Z" fill="#FDE9E9"/>
</svg>
