<svg width="20" height="20" viewBox="0 0 20 20" fill="none" xmlns="http://www.w3.org/2000/svg">
<path d="M15.9982 8.00409C15.9982 7.73888 15.8928 7.48452 15.7053 7.29699C15.5178 7.10945 15.2634 7.00409 14.9982 7.00409H3.40819L5.70819 4.71409C5.89649 4.52579 6.00228 4.27039 6.00228 4.00409C6.00228 3.73779 5.89649 3.4824 5.70819 3.29409C5.51988 3.10579 5.26449 3 4.99819 3C4.73188 3 4.47649 3.10579 4.28819 3.29409L0.288186 7.29409C0.149429 7.43472 0.0554325 7.61329 0.0180584 7.80728C-0.0193158 8.00127 0.0016069 8.20198 0.0781863 8.38409C0.153206 8.56671 0.280604 8.72304 0.444325 8.83337C0.608045 8.9437 0.800761 9.00311 0.998186 9.00409H14.9982C15.2634 9.00409 15.5178 8.89873 15.7053 8.7112C15.8928 8.52366 15.9982 8.26931 15.9982 8.00409ZM19.9182 11.6241C19.8432 11.4415 19.7158 11.2851 19.552 11.1748C19.3883 11.0645 19.1956 11.0051 18.9982 11.0041H4.99819C4.73297 11.0041 4.47862 11.1094 4.29108 11.297C4.10354 11.4845 3.99819 11.7389 3.99819 12.0041C3.99819 12.2693 4.10354 12.5237 4.29108 12.7112C4.47862 12.8987 4.73297 13.0041 4.99819 13.0041H16.5882L14.2882 15.2941C14.1945 15.3871 14.1201 15.4977 14.0693 15.6195C14.0185 15.7414 13.9924 15.8721 13.9924 16.0041C13.9924 16.1361 14.0185 16.2668 14.0693 16.3887C14.1201 16.5105 14.1945 16.6211 14.2882 16.7141C14.3812 16.8078 14.4917 16.8822 14.6136 16.933C14.7355 16.9838 14.8662 17.0099 14.9982 17.0099C15.1302 17.0099 15.2609 16.9838 15.3828 16.933C15.5046 16.8822 15.6152 16.8078 15.7082 16.7141L19.7082 12.7141C19.8469 12.5735 19.9409 12.3949 19.9783 12.2009C20.0157 12.0069 19.9948 11.8062 19.9182 11.6241Z" fill="url(#paint0_linear_289_3822)"/>
<defs>
<linearGradient id="paint0_linear_289_3822" x1="1" y1="10" x2="41" y2="9" gradientUnits="userSpaceOnUse">
<stop stop-color="#F26A6C"/>
<stop offset="1" stop-color="#FDE9E9"/>
</linearGradient>
</defs>
</svg>
