<svg width="21" height="14" viewBox="0 0 21 14" fill="none" xmlns="http://www.w3.org/2000/svg">
<path d="M16.5011 5.09581C16.5011 4.8434 16.3957 4.60133 16.2081 4.42285C16.0206 4.24437 15.7662 4.1441 15.5009 4.1441H3.9088L6.20922 1.96469C6.39756 1.78548 6.50337 1.54242 6.50337 1.28898C6.50337 1.03554 6.39756 0.792474 6.20922 0.613264C6.02088 0.434053 5.76544 0.333374 5.49909 0.333374C5.23274 0.333374 4.9773 0.434053 4.78896 0.613264L0.788239 4.4201C0.649456 4.55393 0.555443 4.72388 0.518062 4.9085C0.480681 5.09312 0.501607 5.28414 0.578201 5.45746C0.653234 5.63126 0.780655 5.78004 0.944405 5.88504C1.10816 5.99005 1.30091 6.04658 1.49837 6.04752H15.5009C15.7662 6.04752 16.0206 5.94725 16.2081 5.76877C16.3957 5.59029 16.5011 5.34822 16.5011 5.09581ZM20.4218 8.541C20.3468 8.3672 20.2193 8.21842 20.0556 8.11341C19.8918 8.00841 19.6991 7.95187 19.5016 7.95094H5.49909C5.23383 7.95094 4.97943 8.05121 4.79186 8.22969C4.60429 8.40817 4.49891 8.65024 4.49891 8.90265C4.49891 9.15505 4.60429 9.39713 4.79186 9.57561C4.97943 9.75409 5.23383 9.85435 5.49909 9.85435H17.0912L14.7908 12.0338C14.697 12.1222 14.6226 12.2275 14.5718 12.3435C14.5211 12.4594 14.4949 12.5838 14.4949 12.7095C14.4949 12.8351 14.5211 12.9595 14.5718 13.0755C14.6226 13.1915 14.697 13.2967 14.7908 13.3852C14.8838 13.4744 14.9944 13.5452 15.1163 13.5935C15.2381 13.6418 15.3689 13.6667 15.5009 13.6667C15.6329 13.6667 15.7637 13.6418 15.8856 13.5935C16.0074 13.5452 16.1181 13.4744 16.211 13.3852L20.2118 9.57836C20.3505 9.44453 20.4446 9.27458 20.4819 9.08995C20.5193 8.90533 20.4984 8.71431 20.4218 8.541Z" fill="#F26A6C"/>
</svg>
