<svg width="12" height="12" viewBox="0 0 12 12" fill="none" xmlns="http://www.w3.org/2000/svg">
<path fill-rule="evenodd" clip-rule="evenodd" d="M2.5 1.5H9.5L4.408 6.592C4.32587 6.38127 4.1921 6.19456 4.019 6.049C3.905 5.95 3.7455 5.8605 3.4275 5.681L1.971 4.861C1.4965 4.5945 1.2595 4.461 1.13 4.246C1 4.0305 1 3.7705 1 3.2515V2.9065C1 2.2435 1 1.9115 1.22 1.7055C1.439 1.5 1.7925 1.5 2.5 1.5Z" fill="white"/>
<path d="M11 3.252V2.907C11 2.244 11 1.912 10.78 1.706C10.561 1.5 10.2075 1.5 9.49997 1.5L4.40747 6.592C4.43247 6.65633 4.45264 6.7235 4.46797 6.7935C4.49997 6.936 4.49997 7.103 4.49997 7.4365V8.7715C4.49997 9.226 4.49997 9.4535 4.62597 9.6305C4.75197 9.808 4.97597 9.8955 5.42297 10.0705C6.36247 10.4375 6.83197 10.621 7.16597 10.412C7.49997 10.203 7.49997 9.726 7.49997 8.771V7.436C7.49997 7.103 7.49997 6.936 7.53147 6.7935C7.5944 6.50201 7.75275 6.23984 7.98147 6.0485C8.09497 5.95 8.25397 5.8605 8.57247 5.681L10.029 4.861C10.503 4.5945 10.7405 4.461 10.87 4.246C11 4.031 11 3.771 11 3.252Z" fill="#6B6B6B"/>
</svg>
