<svg width="10" height="10" viewBox="0 0 10 10" fill="none" xmlns="http://www.w3.org/2000/svg">
<path d="M1.78125 5.94141C1.00391 5.16406 0.609375 4.24219 0.597656 3.17578C0.601562 2.69141 0.720703 2.23828 0.955078 1.81641C1.19336 1.39453 1.51172 1.05859 1.91016 0.808594C2.3125 0.558594 2.75 0.433594 3.22266 0.433594C3.63672 0.433594 4.02148 0.523437 4.37695 0.703125C4.73633 0.878906 5.03516 1.12109 5.27344 1.42969C5.52734 1.11719 5.83008 0.873047 6.18164 0.697266C6.53711 0.521484 6.92188 0.433594 7.33594 0.433594C7.80859 0.433594 8.24609 0.558594 8.64844 0.808594C9.05078 1.05859 9.36914 1.39453 9.60352 1.81641C9.8418 2.23828 9.96094 2.69141 9.96094 3.17578C9.96094 4.24219 9.56641 5.16406 8.77734 5.94141L5.27344 9.43359L1.78125 5.94141Z" fill="#2C2C2C"/>
</svg>
