<svg width="18" height="18" viewBox="0 0 18 18" fill="none" xmlns="http://www.w3.org/2000/svg">
<g clip-path="url(#clip0_678_2045)">
<path d="M9.67659 6.22957L7.43244 4.25182C7.15479 4.00702 6.73809 4.00702 6.46044 4.25182L1.89924 8.27167C1.74084 8.41117 1.65039 8.61187 1.65039 8.82292V14.4349C1.65039 15.2467 2.30874 15.905 3.12054 15.905H14.8804C15.6922 15.905 16.3505 15.2467 16.3505 14.4349V2.83207C16.3505 2.19937 15.6044 1.86232 15.1297 2.28082L10.649 6.22957C10.3714 6.47437 9.95424 6.47437 9.67659 6.22957Z" fill="#FBD1D1"/>
<path d="M15.1292 2.28053L10.6486 6.22928C10.3709 6.47408 9.95469 6.47408 9.67659 6.22928L7.43244 4.25153C7.15479 4.00673 6.73854 4.00673 6.46044 4.25153L1.89924 8.27093C1.74084 8.41043 1.65039 8.61158 1.65039 8.82263V10.741L6.46044 6.50153C6.73854 6.25673 7.15479 6.25673 7.43244 6.50153L9.67659 8.47928C9.95469 8.72408 10.3709 8.72408 10.6486 8.47928L16.3501 3.45458V2.83223C16.3501 2.19953 15.604 1.86248 15.1292 2.28053Z" fill="#F26A6C"/>
</g>
<defs>
<clipPath id="clip0_678_2045">
<rect width="18" height="18" fill="white"/>
</clipPath>
</defs>
</svg>
