<svg width="266" height="40" viewBox="0 0 266 40" fill="none" xmlns="http://www.w3.org/2000/svg">
<rect width="266" height="40" rx="5.30136" fill="#FEE500"/>
<g clip-path="url(#clip0_377_2093)">
<path fill-rule="evenodd" clip-rule="evenodd" d="M21.0138 12.5781C16.6218 12.5781 13.0618 15.3286 13.0618 18.7209C13.0618 20.8306 14.4387 22.6904 16.5355 23.7966L15.6533 27.0195C15.5753 27.3042 15.901 27.5312 16.1511 27.3662L20.0183 24.8138C20.3447 24.8453 20.6764 24.8637 21.0138 24.8637C25.4055 24.8637 28.9658 22.1133 28.9658 18.7209C28.9658 15.3286 25.4055 12.5781 21.0138 12.5781" fill="black"/>
</g>
<g clip-path="url(#clip1_377_2093)">
<path d="M111.423 15.6035C111.423 19.1369 110.453 22.1655 106.143 24.314L105.353 23.2268C107.379 22.2238 108.582 21.0589 109.262 19.6676L105.625 20.017L105.444 18.7745L109.702 18.5027C109.851 17.9591 109.941 17.3832 109.987 16.7684H106.052V15.6035H111.423ZM114.504 14.4516V19.0334H116.238V20.2112H114.504V26.126H113.067V14.4516H114.504ZM122.878 15.6035C122.878 19.1369 121.907 22.1655 117.597 24.314L116.807 23.2268C118.833 22.2238 120.037 21.0589 120.716 19.6676L117.079 20.017L116.898 18.7745L121.156 18.5027C121.305 17.9591 121.396 17.3832 121.441 16.7684H117.506V15.6035H122.878ZM125.958 14.4516V19.0334H127.692V20.2112H125.958V26.126H124.521V14.4516H125.958ZM133.568 15.1117C136.079 15.1117 137.93 16.3672 137.93 18.2698C137.93 20.0235 136.422 21.1948 134.28 21.4019V23.5504H138.94V24.7282H128.249V23.5504H132.857V21.4019C130.727 21.1948 129.22 20.0235 129.233 18.2698C129.22 16.3672 131.07 15.1117 133.568 15.1117ZM133.568 16.2766C131.86 16.2636 130.63 17.0402 130.643 18.2698C130.63 19.5381 131.86 20.2888 133.568 20.2888C135.303 20.2888 136.519 19.5381 136.519 18.2698C136.519 17.0402 135.303 16.2636 133.568 16.2766ZM153.539 23.6022V24.7929H142.848V23.6022H147.456V21.6996H144.117V17.8685H150.847V16.4189H144.091V15.2541H152.271V19.0075H145.553V20.5218H152.542V21.6996H148.88V23.6022H153.539ZM163.609 15.5906V16.9108C163.609 18.4768 163.609 20.0947 163.181 22.5538L161.719 22.4244C162.172 20.1206 162.172 18.4251 162.172 16.9108V16.7555H155.429V15.5906H163.609ZM164.968 23.3692V24.547H154.303V23.3692H164.968ZM175.503 14.4646V22.9162H174.053V14.4646H175.503ZM175.827 24.7541V25.9189H167.763V22.062H169.213V24.7541H175.827ZM169.122 15.2282C170.895 15.2282 172.267 16.4578 172.267 18.1533C172.267 19.8876 170.895 21.0913 169.122 21.0913C167.336 21.0913 165.964 19.8876 165.964 18.1533C165.964 16.4578 167.336 15.2282 169.122 15.2282ZM169.122 16.4837C168.126 16.4837 167.362 17.1437 167.375 18.1533C167.362 19.1887 168.126 19.8358 169.122 19.8358C170.093 19.8358 170.857 19.1887 170.857 18.1533C170.857 17.1437 170.093 16.4837 169.122 16.4837Z" fill="black" fill-opacity="0.85"/>
</g>
<defs>
<clipPath id="clip0_377_2093">
<rect width="15.904" height="15.9041" fill="white" transform="translate(13.0618 12.048)"/>
</clipPath>
<clipPath id="clip1_377_2093">
<rect width="223.972" height="20" fill="white" transform="translate(28.9658 10)"/>
</clipPath>
</defs>
</svg>
