<svg width="24" height="25" viewBox="0 0 24 25" fill="none" xmlns="http://www.w3.org/2000/svg">
<path d="M5.454 3.0293C4.0995 3.0293 3 4.1813 3 5.6003V17.1728C3 19.3028 4.6485 21.0293 6.6825 21.0293H16.5V5.6003C16.5 4.1813 15.4005 3.0293 14.046 3.0293H5.454Z" fill="url(#paint0_linear_289_2501)"/>
<path d="M16.5 15.0293H21V18.0293C21 18.8249 20.6839 19.588 20.1213 20.1506C19.5587 20.7132 18.7956 21.0293 18 21.0293H16.5V15.0293Z" fill="url(#paint1_linear_289_2501)"/>
<path d="M6.75 8.2793C6.75 8.08038 6.82902 7.88962 6.96967 7.74897C7.11032 7.60831 7.30109 7.5293 7.5 7.5293H12C12.1989 7.5293 12.3897 7.60831 12.5303 7.74897C12.671 7.88962 12.75 8.08038 12.75 8.2793C12.75 8.47821 12.671 8.66897 12.5303 8.80963C12.3897 8.95028 12.1989 9.0293 12 9.0293H7.5C7.30109 9.0293 7.11032 8.95028 6.96967 8.80963C6.82902 8.66897 6.75 8.47821 6.75 8.2793Z" fill="url(#paint2_linear_289_2501)"/>
<path d="M6.75 8.2793C6.75 8.08038 6.82902 7.88962 6.96967 7.74897C7.11032 7.60831 7.30109 7.5293 7.5 7.5293H12C12.1989 7.5293 12.3897 7.60831 12.5303 7.74897C12.671 7.88962 12.75 8.08038 12.75 8.2793C12.75 8.47821 12.671 8.66897 12.5303 8.80963C12.3897 8.95028 12.1989 9.0293 12 9.0293H7.5C7.30109 9.0293 7.11032 8.95028 6.96967 8.80963C6.82902 8.66897 6.75 8.47821 6.75 8.2793Z" fill="url(#paint3_linear_289_2501)"/>
<path d="M6.75 12.0293C6.75 11.8304 6.82902 11.6396 6.96967 11.499C7.11032 11.3583 7.30109 11.2793 7.5 11.2793H12C12.1989 11.2793 12.3897 11.3583 12.5303 11.499C12.671 11.6396 12.75 11.8304 12.75 12.0293C12.75 12.2282 12.671 12.419 12.5303 12.5596C12.3897 12.7003 12.1989 12.7793 12 12.7793H7.5C7.30109 12.7793 7.11032 12.7003 6.96967 12.5596C6.82902 12.419 6.75 12.2282 6.75 12.0293Z" fill="url(#paint4_linear_289_2501)"/>
<path d="M6.75 12.0293C6.75 11.8304 6.82902 11.6396 6.96967 11.499C7.11032 11.3583 7.30109 11.2793 7.5 11.2793H12C12.1989 11.2793 12.3897 11.3583 12.5303 11.499C12.671 11.6396 12.75 11.8304 12.75 12.0293C12.75 12.2282 12.671 12.419 12.5303 12.5596C12.3897 12.7003 12.1989 12.7793 12 12.7793H7.5C7.30109 12.7793 7.11032 12.7003 6.96967 12.5596C6.82902 12.419 6.75 12.2282 6.75 12.0293Z" fill="url(#paint5_linear_289_2501)"/>
<path d="M6.75 15.7793C6.75 15.5804 6.82902 15.3896 6.96967 15.249C7.11032 15.1083 7.30109 15.0293 7.5 15.0293H9.75C9.94891 15.0293 10.1397 15.1083 10.2803 15.249C10.421 15.3896 10.5 15.5804 10.5 15.7793C10.5 15.9782 10.421 16.169 10.2803 16.3096C10.1397 16.4503 9.94891 16.5293 9.75 16.5293H7.5C7.30109 16.5293 7.11032 16.4503 6.96967 16.3096C6.82902 16.169 6.75 15.9782 6.75 15.7793Z" fill="url(#paint6_linear_289_2501)"/>
<path d="M6.75 15.7793C6.75 15.5804 6.82902 15.3896 6.96967 15.249C7.11032 15.1083 7.30109 15.0293 7.5 15.0293H9.75C9.94891 15.0293 10.1397 15.1083 10.2803 15.249C10.421 15.3896 10.5 15.5804 10.5 15.7793C10.5 15.9782 10.421 16.169 10.2803 16.3096C10.1397 16.4503 9.94891 16.5293 9.75 16.5293H7.5C7.30109 16.5293 7.11032 16.4503 6.96967 16.3096C6.82902 16.169 6.75 15.9782 6.75 15.7793Z" fill="url(#paint7_linear_289_2501)"/>
<path d="M13 4.5293C13 3.93835 13.1164 3.35319 13.3425 2.80722C13.5687 2.26126 13.9002 1.76518 14.318 1.34732C14.7359 0.929453 15.232 0.597985 15.7779 0.371839C16.3239 0.145693 16.9091 0.0292969 17.5 0.0292969C18.0909 0.0292969 18.6761 0.145693 19.2221 0.371839C19.768 0.597985 20.2641 0.929453 20.682 1.34732C21.0998 1.76518 21.4313 2.26126 21.6575 2.80722C21.8836 3.35319 22 3.93835 22 4.5293C22 5.72277 21.5259 6.86736 20.682 7.71128C19.8381 8.55519 18.6935 9.0293 17.5 9.0293C16.3065 9.0293 15.1619 8.55519 14.318 7.71128C13.4741 6.86736 13 5.72277 13 4.5293Z" fill="url(#paint8_linear_289_2501)"/>
<path d="M19.09 3.15253L16.9375 5.31103L15.8905 4.26403C15.8556 4.22916 15.8142 4.2015 15.7687 4.18263C15.7231 4.16376 15.6743 4.15405 15.625 4.15405C15.5757 4.15405 15.5269 4.16376 15.4813 4.18263C15.4357 4.2015 15.3944 4.22916 15.3595 4.26403C15.3246 4.29889 15.297 4.34028 15.2781 4.38584C15.2592 4.43139 15.2495 4.48022 15.2495 4.52953C15.2495 4.57883 15.2592 4.62766 15.2781 4.67321C15.297 4.71877 15.3246 4.76016 15.3595 4.79503L16.672 6.10753C16.7068 6.14245 16.7482 6.17016 16.7938 6.18906C16.8393 6.20796 16.8882 6.2177 16.9375 6.2177C16.9868 6.2177 17.0357 6.20796 17.0812 6.18906C17.1268 6.17016 17.1682 6.14245 17.203 6.10753L19.621 3.68203C19.6892 3.6112 19.7269 3.51642 19.7259 3.4181C19.7249 3.31977 19.6853 3.22577 19.6157 3.15634C19.5461 3.0869 19.4519 3.0476 19.3536 3.04688C19.2553 3.04617 19.1606 3.08411 19.09 3.15253Z" fill="url(#paint9_linear_289_2501)"/>
<defs>
<linearGradient id="paint0_linear_289_2501" x1="5.454" y1="3.6728" x2="11.457" y2="20.8613" gradientUnits="userSpaceOnUse">
<stop stop-color="#FBD1D1"/>
<stop offset="0.645" stop-color="#F58A8B"/>
<stop offset="1" stop-color="#F26A6C"/>
</linearGradient>
<linearGradient id="paint1_linear_289_2501" x1="21" y1="17.4293" x2="16.701" y2="18.3593" gradientUnits="userSpaceOnUse">
<stop stop-color="#F8AAAB"/>
<stop offset="1" stop-color="#F26A6C"/>
</linearGradient>
<linearGradient id="paint2_linear_289_2501" x1="5.7" y1="15.0293" x2="6.384" y2="17.9018" gradientUnits="userSpaceOnUse">
<stop stop-color="#F58A8B"/>
<stop offset="1" stop-color="#F26A6C"/>
</linearGradient>
<linearGradient id="paint3_linear_289_2501" x1="5.55" y1="7.5293" x2="14.4345" y2="14.6378" gradientUnits="userSpaceOnUse">
<stop stop-color="#F58A8B"/>
<stop offset="1" stop-color="#F26A6C"/>
</linearGradient>
<linearGradient id="paint4_linear_289_2501" x1="5.7" y1="15.0293" x2="6.384" y2="17.9018" gradientUnits="userSpaceOnUse">
<stop stop-color="#F58A8B"/>
<stop offset="1" stop-color="#F26A6C"/>
</linearGradient>
<linearGradient id="paint5_linear_289_2501" x1="5.55" y1="7.5293" x2="14.4345" y2="14.6378" gradientUnits="userSpaceOnUse">
<stop stop-color="#F58A8B"/>
<stop offset="1" stop-color="#F26A6C"/>
</linearGradient>
<linearGradient id="paint6_linear_289_2501" x1="5.7" y1="15.0293" x2="6.384" y2="17.9018" gradientUnits="userSpaceOnUse">
<stop stop-color="#F8AAAB"/>
<stop offset="1" stop-color="#F26A6C"/>
</linearGradient>
<linearGradient id="paint7_linear_289_2501" x1="5.55" y1="7.5293" x2="14.4345" y2="14.6378" gradientUnits="userSpaceOnUse">
<stop stop-color="#F58A8B"/>
<stop offset="1" stop-color="#F26A6C"/>
</linearGradient>
<linearGradient id="paint8_linear_289_2501" x1="13.3217" y1="1.7168" x2="19.5325" y2="8.1698" gradientUnits="userSpaceOnUse">
<stop stop-color="#52D17C"/>
<stop offset="1" stop-color="#22918B"/>
</linearGradient>
<linearGradient id="paint9_linear_289_2501" x1="16.09" y1="3.36628" x2="16.807" y2="6.93703" gradientUnits="userSpaceOnUse">
<stop stop-color="white"/>
<stop offset="1" stop-color="#E3FFD9"/>
</linearGradient>
</defs>
</svg>
