<svg width="24" height="24" viewBox="0 0 24 24" fill="none" xmlns="http://www.w3.org/2000/svg">
<path d="M5.454 3C4.0995 3 3 4.152 3 5.571V17.1435C3 19.2735 4.6485 21 6.6825 21H16.5V5.571C16.5 4.152 15.4005 3 14.046 3H5.454Z" fill="url(#paint0_linear_289_2309)"/>
<path d="M16.5 15H21V18C21 18.7956 20.6839 19.5587 20.1213 20.1213C19.5587 20.6839 18.7956 21 18 21H16.5V15Z" fill="url(#paint1_linear_289_2309)"/>
<path d="M6.75 8.25C6.75 8.05109 6.82902 7.86032 6.96967 7.71967C7.11032 7.57902 7.30109 7.5 7.5 7.5H12C12.1989 7.5 12.3897 7.57902 12.5303 7.71967C12.671 7.86032 12.75 8.05109 12.75 8.25C12.75 8.44891 12.671 8.63968 12.5303 8.78033C12.3897 8.92098 12.1989 9 12 9H7.5C7.30109 9 7.11032 8.92098 6.96967 8.78033C6.82902 8.63968 6.75 8.44891 6.75 8.25Z" fill="url(#paint2_linear_289_2309)"/>
<path d="M6.75 8.25C6.75 8.05109 6.82902 7.86032 6.96967 7.71967C7.11032 7.57902 7.30109 7.5 7.5 7.5H12C12.1989 7.5 12.3897 7.57902 12.5303 7.71967C12.671 7.86032 12.75 8.05109 12.75 8.25C12.75 8.44891 12.671 8.63968 12.5303 8.78033C12.3897 8.92098 12.1989 9 12 9H7.5C7.30109 9 7.11032 8.92098 6.96967 8.78033C6.82902 8.63968 6.75 8.44891 6.75 8.25Z" fill="url(#paint3_linear_289_2309)"/>
<path d="M6.75 12C6.75 11.8011 6.82902 11.6103 6.96967 11.4697C7.11032 11.329 7.30109 11.25 7.5 11.25H12C12.1989 11.25 12.3897 11.329 12.5303 11.4697C12.671 11.6103 12.75 11.8011 12.75 12C12.75 12.1989 12.671 12.3897 12.5303 12.5303C12.3897 12.671 12.1989 12.75 12 12.75H7.5C7.30109 12.75 7.11032 12.671 6.96967 12.5303C6.82902 12.3897 6.75 12.1989 6.75 12Z" fill="url(#paint4_linear_289_2309)"/>
<path d="M6.75 12C6.75 11.8011 6.82902 11.6103 6.96967 11.4697C7.11032 11.329 7.30109 11.25 7.5 11.25H12C12.1989 11.25 12.3897 11.329 12.5303 11.4697C12.671 11.6103 12.75 11.8011 12.75 12C12.75 12.1989 12.671 12.3897 12.5303 12.5303C12.3897 12.671 12.1989 12.75 12 12.75H7.5C7.30109 12.75 7.11032 12.671 6.96967 12.5303C6.82902 12.3897 6.75 12.1989 6.75 12Z" fill="url(#paint5_linear_289_2309)"/>
<path d="M6.75 15.75C6.75 15.5511 6.82902 15.3603 6.96967 15.2197C7.11032 15.079 7.30109 15 7.5 15H9.75C9.94891 15 10.1397 15.079 10.2803 15.2197C10.421 15.3603 10.5 15.5511 10.5 15.75C10.5 15.9489 10.421 16.1397 10.2803 16.2803C10.1397 16.421 9.94891 16.5 9.75 16.5H7.5C7.30109 16.5 7.11032 16.421 6.96967 16.2803C6.82902 16.1397 6.75 15.9489 6.75 15.75Z" fill="url(#paint6_linear_289_2309)"/>
<path d="M6.75 15.75C6.75 15.5511 6.82902 15.3603 6.96967 15.2197C7.11032 15.079 7.30109 15 7.5 15H9.75C9.94891 15 10.1397 15.079 10.2803 15.2197C10.421 15.3603 10.5 15.5511 10.5 15.75C10.5 15.9489 10.421 16.1397 10.2803 16.2803C10.1397 16.421 9.94891 16.5 9.75 16.5H7.5C7.30109 16.5 7.11032 16.421 6.96967 16.2803C6.82902 16.1397 6.75 15.9489 6.75 15.75Z" fill="url(#paint7_linear_289_2309)"/>
<defs>
<linearGradient id="paint0_linear_289_2309" x1="5.454" y1="3.6435" x2="11.457" y2="20.832" gradientUnits="userSpaceOnUse">
<stop stop-color="#FBD1D1"/>
<stop offset="0.645" stop-color="#F58A8B"/>
<stop offset="1" stop-color="#F26A6C"/>
</linearGradient>
<linearGradient id="paint1_linear_289_2309" x1="21" y1="17.4" x2="16.701" y2="18.33" gradientUnits="userSpaceOnUse">
<stop stop-color="#F8AAAB"/>
<stop offset="1" stop-color="#F26A6C"/>
</linearGradient>
<linearGradient id="paint2_linear_289_2309" x1="5.7" y1="15" x2="6.384" y2="17.8725" gradientUnits="userSpaceOnUse">
<stop stop-color="#F58A8B"/>
<stop offset="1" stop-color="#F26A6C"/>
</linearGradient>
<linearGradient id="paint3_linear_289_2309" x1="5.55" y1="7.5" x2="14.4345" y2="14.6085" gradientUnits="userSpaceOnUse">
<stop stop-color="#F58A8B"/>
<stop offset="1" stop-color="#F26A6C"/>
</linearGradient>
<linearGradient id="paint4_linear_289_2309" x1="5.7" y1="15" x2="6.384" y2="17.8725" gradientUnits="userSpaceOnUse">
<stop stop-color="#F58A8B"/>
<stop offset="1" stop-color="#F26A6C"/>
</linearGradient>
<linearGradient id="paint5_linear_289_2309" x1="5.55" y1="7.5" x2="14.4345" y2="14.6085" gradientUnits="userSpaceOnUse">
<stop stop-color="#F58A8B"/>
<stop offset="1" stop-color="#F26A6C"/>
</linearGradient>
<linearGradient id="paint6_linear_289_2309" x1="5.7" y1="15" x2="6.384" y2="17.8725" gradientUnits="userSpaceOnUse">
<stop stop-color="#F8AAAB"/>
<stop offset="1" stop-color="#F26A6C"/>
</linearGradient>
<linearGradient id="paint7_linear_289_2309" x1="5.55" y1="7.5" x2="14.4345" y2="14.6085" gradientUnits="userSpaceOnUse">
<stop stop-color="#F58A8B"/>
<stop offset="1" stop-color="#F26A6C"/>
</linearGradient>
</defs>
</svg>
