<svg width="104" height="30" viewBox="0 0 104 30" fill="none" xmlns="http://www.w3.org/2000/svg">
<path d="M7.008 13.2C7.68 13.2 8.192 13.048 8.544 12.744C8.912 12.424 9.096 11.944 9.096 11.304C9.096 10.696 8.904 10.232 8.52 9.912C8.152 9.576 7.608 9.408 6.888 9.408C6.632 9.408 6.416 9.416 6.24 9.432C6.08 9.432 5.912 9.448 5.736 9.48V13.2H7.008ZM5.76 20.904C5.584 20.952 5.304 21 4.92 21.048C4.552 21.096 4.184 21.12 3.816 21.12C3.448 21.12 3.12 21.088 2.832 21.024C2.56 20.976 2.328 20.88 2.136 20.736C1.944 20.592 1.8 20.392 1.704 20.136C1.608 19.88 1.56 19.544 1.56 19.128V7.824C1.56 7.488 1.648 7.232 1.824 7.056C2.016 6.864 2.272 6.712 2.592 6.6C3.136 6.408 3.752 6.272 4.44 6.192C5.144 6.096 5.848 6.048 6.552 6.048C8.76 6.048 10.448 6.52 11.616 7.464C12.784 8.408 13.368 9.688 13.368 11.304C13.368 12.088 13.24 12.8 12.984 13.44C12.744 14.064 12.376 14.608 11.88 15.072C11.4 15.52 10.784 15.872 10.032 16.128C9.296 16.368 8.44 16.488 7.464 16.488H5.76V20.904ZM25.9538 15.168C25.9538 16.16 25.8018 17.048 25.4978 17.832C25.1938 18.6 24.7618 19.248 24.2018 19.776C23.6578 20.304 23.0018 20.704 22.2338 20.976C21.4658 21.248 20.6098 21.384 19.6658 21.384C18.7218 21.384 17.8658 21.24 17.0978 20.952C16.3298 20.664 15.6658 20.256 15.1058 19.728C14.5618 19.184 14.1378 18.528 13.8337 17.76C13.5297 16.992 13.3777 16.128 13.3777 15.168C13.3777 14.224 13.5297 13.368 13.8337 12.6C14.1378 11.832 14.5618 11.184 15.1058 10.656C15.6658 10.112 16.3298 9.696 17.0978 9.408C17.8658 9.12 18.7218 8.976 19.6658 8.976C20.6098 8.976 21.4658 9.128 22.2338 9.432C23.0018 9.72 23.6578 10.136 24.2018 10.68C24.7618 11.208 25.1938 11.856 25.4978 12.624C25.8018 13.392 25.9538 14.24 25.9538 15.168ZM17.5538 15.168C17.5538 16.144 17.7378 16.896 18.1058 17.424C18.4898 17.936 19.0178 18.192 19.6897 18.192C20.3618 18.192 20.8738 17.928 21.2258 17.4C21.5938 16.872 21.7778 16.128 21.7778 15.168C21.7778 14.208 21.5938 13.472 21.2258 12.96C20.8578 12.432 20.3378 12.168 19.6658 12.168C18.9938 12.168 18.4738 12.432 18.1058 12.96C17.7378 13.472 17.5538 14.208 17.5538 15.168ZM33.5603 12.192C33.1603 12.192 32.7763 12.256 32.4083 12.384C32.0563 12.512 31.7443 12.704 31.4723 12.96C31.2163 13.2 31.0083 13.504 30.8483 13.872C30.6883 14.24 30.6083 14.672 30.6083 15.168C30.6083 16.16 30.8883 16.904 31.4483 17.4C32.0243 17.896 32.7203 18.144 33.5363 18.144C34.0163 18.144 34.4323 18.088 34.7843 17.976C35.1363 17.864 35.4483 17.744 35.7203 17.616C36.0403 17.84 36.2803 18.088 36.4403 18.36C36.6003 18.616 36.6803 18.928 36.6803 19.296C36.6803 19.952 36.3683 20.464 35.7443 20.832C35.1203 21.184 34.2563 21.36 33.1523 21.36C32.1443 21.36 31.2323 21.216 30.4163 20.928C29.6003 20.624 28.8963 20.208 28.3043 19.68C27.7283 19.136 27.2802 18.488 26.9602 17.736C26.6402 16.984 26.4802 16.152 26.4802 15.24C26.4802 14.184 26.6482 13.264 26.9842 12.48C27.3362 11.68 27.8083 11.024 28.4003 10.512C28.9923 10 29.6723 9.616 30.4403 9.36C31.2243 9.104 32.0483 8.976 32.9123 8.976C34.0643 8.976 34.9523 9.184 35.5763 9.6C36.2003 10.016 36.5123 10.552 36.5123 11.208C36.5123 11.512 36.4403 11.8 36.2963 12.072C36.1523 12.328 35.9843 12.552 35.7923 12.744C35.5203 12.616 35.1923 12.496 34.8083 12.384C34.4243 12.256 34.0082 12.192 33.5603 12.192ZM49.1664 18.888C49.0864 19.64 48.8624 20.216 48.4944 20.616C48.1424 21.016 47.6224 21.216 46.9344 21.216C46.4224 21.216 45.9664 21.096 45.5664 20.856C45.1664 20.6 44.7344 20.176 44.2704 19.584L41.8944 16.608V20.976C41.7184 21.008 41.4544 21.048 41.1024 21.096C40.7664 21.16 40.4224 21.192 40.0704 21.192C39.7184 21.192 39.3984 21.168 39.1104 21.12C38.8384 21.072 38.6064 20.976 38.4144 20.832C38.2224 20.688 38.0704 20.496 37.9584 20.256C37.8624 20 37.8144 19.672 37.8144 19.272V5.376C37.9904 5.328 38.2464 5.28 38.5824 5.232C38.9344 5.168 39.2864 5.136 39.6384 5.136C39.9904 5.136 40.3024 5.16 40.5744 5.208C40.8624 5.256 41.1024 5.352 41.2944 5.496C41.4864 5.64 41.6304 5.84 41.7264 6.096C41.8384 6.336 41.8944 6.656 41.8944 7.056V13.392L46.0224 9.168C46.8544 9.168 47.5184 9.352 48.0144 9.72C48.5264 10.088 48.7824 10.552 48.7824 11.112C48.7824 11.352 48.7424 11.576 48.6624 11.784C48.5824 11.976 48.4544 12.176 48.2784 12.384C48.1184 12.592 47.9024 12.816 47.6304 13.056C47.3744 13.28 47.0704 13.544 46.7184 13.848L45.3264 15.048L49.1664 18.888ZM55.7479 21.384C54.8039 21.384 53.9239 21.256 53.1079 21C52.3079 20.728 51.6039 20.328 50.9959 19.8C50.4039 19.272 49.9319 18.608 49.5799 17.808C49.2439 17.008 49.0759 16.072 49.0759 15C49.0759 13.944 49.2439 13.04 49.5799 12.288C49.9319 11.52 50.3879 10.896 50.9479 10.416C51.5079 9.92 52.1479 9.56 52.8679 9.336C53.5879 9.096 54.3239 8.976 55.0759 8.976C55.9239 8.976 56.6919 9.104 57.3799 9.36C58.0839 9.616 58.6839 9.968 59.1799 10.416C59.6919 10.864 60.0839 11.4 60.3559 12.024C60.6439 12.648 60.7879 13.328 60.7879 14.064C60.7879 14.608 60.6359 15.024 60.3319 15.312C60.0279 15.6 59.6039 15.784 59.0599 15.864L53.1319 16.752C53.3079 17.28 53.6679 17.68 54.2119 17.952C54.7559 18.208 55.3799 18.336 56.0839 18.336C56.7399 18.336 57.3559 18.256 57.9319 18.096C58.5239 17.92 59.0039 17.72 59.3719 17.496C59.6279 17.656 59.8439 17.88 60.0199 18.168C60.1959 18.456 60.2839 18.76 60.2839 19.08C60.2839 19.8 59.9479 20.336 59.2759 20.688C58.7639 20.96 58.1879 21.144 57.5479 21.24C56.9079 21.336 56.3079 21.384 55.7479 21.384ZM55.0759 11.952C54.6919 11.952 54.3559 12.016 54.0679 12.144C53.7959 12.272 53.5719 12.44 53.3959 12.648C53.2199 12.84 53.0839 13.064 52.9879 13.32C52.9079 13.56 52.8599 13.808 52.8439 14.064L56.9479 13.392C56.8999 13.072 56.7239 12.752 56.4199 12.432C56.1159 12.112 55.6679 11.952 55.0759 11.952ZM65.8718 16.992C65.8718 17.408 65.9998 17.704 66.2558 17.88C66.5278 18.056 66.9038 18.144 67.3838 18.144C67.6238 18.144 67.8718 18.128 68.1278 18.096C68.3838 18.048 68.6078 17.992 68.7998 17.928C68.9438 18.104 69.0638 18.304 69.1598 18.528C69.2718 18.736 69.3278 18.992 69.3278 19.296C69.3278 19.904 69.0958 20.4 68.6318 20.784C68.1838 21.168 67.3838 21.36 66.2318 21.36C64.8238 21.36 63.7358 21.04 62.9678 20.4C62.2158 19.76 61.8398 18.72 61.8398 17.28V7.008C62.0158 6.96 62.2638 6.912 62.5838 6.864C62.9198 6.8 63.2718 6.768 63.6398 6.768C64.3438 6.768 64.8878 6.896 65.2718 7.152C65.6718 7.392 65.8718 7.912 65.8718 8.712V10.248H69.0158C69.1118 10.424 69.1998 10.648 69.2798 10.92C69.3758 11.176 69.4238 11.464 69.4238 11.784C69.4238 12.344 69.2958 12.752 69.0398 13.008C68.7998 13.248 68.4718 13.368 68.0558 13.368H65.8718V16.992ZM70.3451 6.096C70.3451 5.488 70.5451 4.976 70.9451 4.56C71.3611 4.144 71.9051 3.936 72.5771 3.936C73.2491 3.936 73.7851 4.144 74.1851 4.56C74.6011 4.976 74.8091 5.488 74.8091 6.096C74.8091 6.704 74.6011 7.216 74.1851 7.632C73.7851 8.048 73.2491 8.256 72.5771 8.256C71.9051 8.256 71.3611 8.048 70.9451 7.632C70.5451 7.216 70.3451 6.704 70.3451 6.096ZM74.6171 20.976C74.4411 21.008 74.1771 21.048 73.8251 21.096C73.4891 21.16 73.1451 21.192 72.7931 21.192C72.4411 21.192 72.1211 21.168 71.8331 21.12C71.5611 21.072 71.3291 20.976 71.1371 20.832C70.9451 20.688 70.7931 20.496 70.6811 20.256C70.5851 20 70.5371 19.672 70.5371 19.272V9.504C70.7131 9.472 70.9691 9.432 71.3051 9.384C71.6571 9.32 72.0091 9.288 72.3611 9.288C72.7131 9.288 73.0251 9.312 73.2971 9.36C73.5851 9.408 73.8251 9.504 74.0171 9.648C74.2091 9.792 74.3531 9.992 74.4491 10.248C74.5611 10.488 74.6171 10.808 74.6171 11.208V20.976ZM83.6466 13.608C83.6466 13.112 83.5026 12.752 83.2146 12.528C82.9426 12.288 82.5666 12.168 82.0866 12.168C81.7666 12.168 81.4466 12.208 81.1266 12.288C80.8226 12.368 80.5586 12.488 80.3346 12.648V20.976C80.1746 21.024 79.9186 21.072 79.5666 21.12C79.2306 21.168 78.8786 21.192 78.5106 21.192C78.1586 21.192 77.8386 21.168 77.5506 21.12C77.2786 21.072 77.0466 20.976 76.8546 20.832C76.6626 20.688 76.5106 20.496 76.3986 20.256C76.3026 20 76.2546 19.672 76.2546 19.272V12.072C76.2546 11.64 76.3426 11.288 76.5186 11.016C76.7106 10.744 76.9666 10.496 77.2866 10.272C77.8306 9.888 78.5106 9.576 79.3266 9.336C80.1586 9.096 81.0786 8.976 82.0866 8.976C83.8946 8.976 85.2866 9.376 86.2626 10.176C87.2386 10.96 87.7266 12.056 87.7266 13.464V20.976C87.5666 21.024 87.3106 21.072 86.9586 21.12C86.6226 21.168 86.2706 21.192 85.9026 21.192C85.5506 21.192 85.2306 21.168 84.9426 21.12C84.6706 21.072 84.4386 20.976 84.2466 20.832C84.0546 20.688 83.9026 20.496 83.7906 20.256C83.6946 20 83.6466 19.672 83.6466 19.272V13.608ZM94.9747 8.976C95.8867 8.976 96.7108 9.096 97.4468 9.336C98.1988 9.56 98.8307 9.856 99.3428 10.224C99.6628 10.448 99.9108 10.696 100.087 10.968C100.279 11.24 100.375 11.592 100.375 12.024V20.424C100.375 21.272 100.215 22 99.8948 22.608C99.5748 23.232 99.1348 23.744 98.5747 24.144C98.0308 24.56 97.3828 24.864 96.6307 25.056C95.8947 25.248 95.1027 25.344 94.2547 25.344C92.7987 25.344 91.6547 25.144 90.8227 24.744C89.9907 24.36 89.5747 23.728 89.5747 22.848C89.5747 22.48 89.6467 22.152 89.7907 21.864C89.9507 21.592 90.1267 21.384 90.3187 21.24C90.7827 21.496 91.3027 21.712 91.8787 21.888C92.4707 22.064 93.0788 22.152 93.7028 22.152C94.5668 22.152 95.2548 22.008 95.7668 21.72C96.2787 21.432 96.5347 20.968 96.5347 20.328V19.944C95.8788 20.232 95.0788 20.376 94.1347 20.376C93.4147 20.376 92.7267 20.272 92.0707 20.064C91.4307 19.84 90.8627 19.504 90.3667 19.056C89.8867 18.592 89.4947 18 89.1907 17.28C88.9027 16.56 88.7587 15.704 88.7587 14.712C88.7587 13.736 88.9107 12.888 89.2147 12.168C89.5347 11.448 89.9667 10.856 90.5107 10.392C91.0707 9.912 91.7267 9.56 92.4787 9.336C93.2467 9.096 94.0787 8.976 94.9747 8.976ZM96.4627 12.456C96.3507 12.392 96.1827 12.328 95.9588 12.264C95.7507 12.2 95.4867 12.168 95.1668 12.168C94.3828 12.168 93.7907 12.392 93.3907 12.84C93.0067 13.272 92.8148 13.896 92.8148 14.712C92.8148 15.64 93.0067 16.312 93.3907 16.728C93.7907 17.128 94.2947 17.328 94.9028 17.328C95.5588 17.328 96.0788 17.176 96.4627 16.872V12.456Z" fill="url(#paint0_linear_272_1877)"/>
<defs>
<linearGradient id="paint0_linear_272_1877" x1="0.0559282" y1="13.1524" x2="100.239" y2="-5.35711" gradientUnits="userSpaceOnUse">
<stop stop-color="#F26A6C"/>
<stop offset="0.672581" stop-color="#F58A8B"/>
<stop offset="0.872341" stop-color="#F8AAAB"/>
</linearGradient>
</defs>
</svg>
