<svg width="21" height="24" viewBox="0 0 21 24" fill="none" xmlns="http://www.w3.org/2000/svg">
<path d="M7.20466 12.3195C6.79541 11.9102 6.56549 11.3551 6.56549 10.7764C6.56549 10.1976 6.79541 9.64254 7.20466 9.23329C7.61391 8.82403 8.16898 8.59412 8.74775 8.59412C9.32652 8.59412 9.88159 8.82403 10.2908 9.23329L10.3181 9.26165L10.3454 9.23329C10.548 9.03064 10.7886 8.8699 11.0534 8.76023C11.3181 8.65056 11.6019 8.59412 11.8885 8.59412C12.1751 8.59412 12.4588 8.65056 12.7236 8.76023C12.9884 8.8699 13.2289 9.03064 13.4316 9.23329C13.6342 9.43593 13.795 9.6765 13.9046 9.94126C14.0143 10.206 14.0707 10.4898 14.0707 10.7764C14.0707 11.063 14.0143 11.3467 13.9046 11.6115C13.795 11.8763 13.6342 12.1168 13.4316 12.3195L10.3454 15.4046L10.3181 15.3773L10.2908 15.4046L7.20466 12.3195Z" fill="#F26A6C"/>
<path fill-rule="evenodd" clip-rule="evenodd" d="M0.5 3.27273C0.5 2.40475 0.844804 1.57232 1.45856 0.95856C2.07232 0.344804 2.90475 0 3.77273 0H16.8636C17.7316 0 18.564 0.344804 19.1778 0.95856C19.7916 1.57232 20.1364 2.40475 20.1364 3.27273V20.7273C20.1364 21.5953 19.7916 22.4277 19.1778 23.0414C18.564 23.6552 17.7316 24 16.8636 24H3.77273C2.90475 24 2.07232 23.6552 1.45856 23.0414C0.844804 22.4277 0.5 21.5953 0.5 20.7273V3.27273ZM3.77273 2.18182H16.8636C17.153 2.18182 17.4304 2.29675 17.635 2.50134C17.8396 2.70592 17.9545 2.9834 17.9545 3.27273V20.7273C17.9545 21.0166 17.8396 21.2941 17.635 21.4987C17.4304 21.7032 17.153 21.8182 16.8636 21.8182H3.77273C3.4834 21.8182 3.20592 21.7032 3.00134 21.4987C2.79675 21.2941 2.68182 21.0166 2.68182 20.7273V3.27273C2.68182 2.9834 2.79675 2.70592 3.00134 2.50134C3.20592 2.29675 3.4834 2.18182 3.77273 2.18182Z" fill="#F26A6C"/>
</svg>
