<svg width="20" height="24" viewBox="0 0 20 24" fill="none" xmlns="http://www.w3.org/2000/svg">
<path d="M6.70466 12.3195C6.29541 11.9102 6.06549 11.3551 6.06549 10.7764C6.06549 10.1976 6.29541 9.64254 6.70466 9.23329C7.11391 8.82403 7.66898 8.59412 8.24775 8.59412C8.82652 8.59412 9.38159 8.82403 9.79084 9.23329L9.81811 9.26165L9.84539 9.23329C10.048 9.03064 10.2886 8.8699 10.5534 8.76023C10.8181 8.65056 11.1019 8.59412 11.3885 8.59412C11.6751 8.59412 11.9588 8.65056 12.2236 8.76023C12.4884 8.8699 12.7289 9.03064 12.9316 9.23329C13.1342 9.43593 13.295 9.6765 13.4046 9.94126C13.5143 10.206 13.5707 10.4898 13.5707 10.7764C13.5707 11.063 13.5143 11.3467 13.4046 11.6115C13.295 11.8763 13.1342 12.1168 12.9316 12.3195L9.84539 15.4046L9.81811 15.3773L9.79084 15.4046L6.70466 12.3195Z" fill="#FDE9E9"/>
<path fill-rule="evenodd" clip-rule="evenodd" d="M0 3.27273C0 2.40475 0.344804 1.57232 0.95856 0.95856C1.57232 0.344804 2.40475 0 3.27273 0H16.3636C17.2316 0 18.064 0.344804 18.6778 0.95856C19.2916 1.57232 19.6364 2.40475 19.6364 3.27273V20.7273C19.6364 21.5953 19.2916 22.4277 18.6778 23.0414C18.064 23.6552 17.2316 24 16.3636 24H3.27273C2.40475 24 1.57232 23.6552 0.95856 23.0414C0.344804 22.4277 0 21.5953 0 20.7273V3.27273ZM3.27273 2.18182H16.3636C16.653 2.18182 16.9304 2.29675 17.135 2.50134C17.3396 2.70592 17.4545 2.9834 17.4545 3.27273V20.7273C17.4545 21.0166 17.3396 21.2941 17.135 21.4987C16.9304 21.7032 16.653 21.8182 16.3636 21.8182H3.27273C2.9834 21.8182 2.70592 21.7032 2.50134 21.4987C2.29675 21.2941 2.18182 21.0166 2.18182 20.7273V3.27273C2.18182 2.9834 2.29675 2.70592 2.50134 2.50134C2.70592 2.29675 2.9834 2.18182 3.27273 2.18182Z" fill="#FDE9E9"/>
</svg>
