<svg width="20" height="20" viewBox="0 0 20 20" fill="none" xmlns="http://www.w3.org/2000/svg">
<path d="M13.6095 1.09648C13.9571 0.748854 14.3698 0.473101 14.824 0.284966C15.2782 0.0968316 15.7649 3.66285e-09 16.2565 0C16.7481 -3.66285e-09 17.2349 0.0968316 17.6891 0.284966C18.1433 0.473101 18.556 0.748854 18.9036 1.09648C19.2512 1.44411 19.5269 1.8568 19.715 2.311C19.9032 2.7652 20 3.252 20 3.74362C20 4.23524 19.9032 4.72205 19.715 5.17625C19.5269 5.63044 19.2512 6.04314 18.9036 6.39077L18.1695 7.12485C17.6323 6.53159 16.9397 6.10066 16.1701 5.8809L12.497 2.20904L13.6095 1.09648ZM10.7118 10.0026C10.7116 9.02464 11.0459 8.07597 11.6592 7.31423C12.2726 6.55248 13.1281 6.02352 14.0836 5.81521L11.4873 3.21877L2.3673 12.3377C1.83343 12.8726 1.45271 13.5409 1.26479 14.2729L0.022322 19.1088C-0.00848937 19.2291 -0.00738618 19.3554 0.0255226 19.4751C0.0584315 19.5949 0.122008 19.704 0.209974 19.7917C0.29794 19.8794 0.407254 19.9426 0.527121 19.9751C0.646988 20.0076 0.773264 20.0083 0.893478 19.9771L5.72768 18.736C6.45943 18.5485 7.1273 18.1677 7.66136 17.6334L8.57822 16.7165C8.50291 15.7788 8.80073 14.8492 9.40697 14.1298C10.0132 13.4104 10.8789 12.9594 11.8158 12.8747C11.1049 12.0871 10.7115 11.0637 10.7118 10.0026ZM17.8525 10.0026C17.8525 10.7602 17.5515 11.4867 17.0159 12.0224C16.4802 12.5581 15.7537 12.859 14.9962 12.859C14.2387 12.859 13.5122 12.5581 12.9765 12.0224C12.4409 11.4867 12.14 10.7602 12.14 10.0026C12.14 9.24509 12.4409 8.51856 12.9765 7.98289C13.5122 7.44721 14.2387 7.14628 14.9962 7.14628C15.7537 7.14628 16.4802 7.44721 17.0159 7.98289C17.5515 8.51856 17.8525 9.24509 17.8525 10.0026ZM19.9947 16.4295C19.9947 18.2076 18.5665 19.9999 14.9962 19.9999C11.4259 19.9999 9.99778 18.2147 9.99778 16.4295C9.99778 15.8613 10.2235 15.3164 10.6252 14.9147C11.0269 14.5129 11.5718 14.2872 12.14 14.2872H17.8525C18.4206 14.2872 18.9655 14.5129 19.3672 14.9147C19.769 15.3164 19.9947 15.8613 19.9947 16.4295Z" fill="url(#paint0_linear_272_1875)"/>
<defs>
<linearGradient id="paint0_linear_272_1875" x1="3.5" y1="5.5" x2="27.8571" y2="29.2857" gradientUnits="userSpaceOnUse">
<stop stop-color="#F26A6C"/>
<stop offset="0.850962" stop-color="#FAC4C5"/>
<stop offset="1" stop-color="white"/>
</linearGradient>
</defs>
</svg>
