<svg width="22" height="22" viewBox="0 0 22 22" fill="none" xmlns="http://www.w3.org/2000/svg">
<path d="M18.7778 1H3.22222C1.99492 1 1 1.99492 1 3.22222V18.7778C1 20.0051 1.99492 21 3.22222 21H18.7778C20.0051 21 21 20.0051 21 18.7778V3.22222C21 1.99492 20.0051 1 18.7778 1Z" stroke="#F26A6C" stroke-width="2" stroke-linecap="round" stroke-linejoin="round"/>
<path d="M4.33331 16C4.33331 15.1159 4.6845 14.2681 5.30962 13.6429C5.93474 13.0178 6.78259 12.6666 7.66665 12.6666H14.3333C15.2174 12.6666 16.0652 13.0178 16.6903 13.6429C17.3155 14.2681 17.6666 15.1159 17.6666 16C17.6666 16.442 17.4911 16.8659 17.1785 17.1785C16.8659 17.491 16.442 17.6666 16 17.6666H5.99998C5.55795 17.6666 5.13403 17.491 4.82147 17.1785C4.50891 16.8659 4.33331 16.442 4.33331 16Z" stroke="#F26A6C" stroke-width="2" stroke-linejoin="round"/>
<path d="M11 9.33337C12.3807 9.33337 13.5 8.21409 13.5 6.83337C13.5 5.45266 12.3807 4.33337 11 4.33337C9.61929 4.33337 8.5 5.45266 8.5 6.83337C8.5 8.21409 9.61929 9.33337 11 9.33337Z" stroke="#F26A6C" stroke-width="2"/>
</svg>
