<svg width="23" height="22" viewBox="0 0 23 22" fill="none" xmlns="http://www.w3.org/2000/svg">
<path d="M19.2778 1H3.72222C2.49492 1 1.5 1.99492 1.5 3.22222V18.7778C1.5 20.0051 2.49492 21 3.72222 21H19.2778C20.5051 21 21.5 20.0051 21.5 18.7778V3.22222C21.5 1.99492 20.5051 1 19.2778 1Z" stroke="#FDE9E9" stroke-width="2" stroke-linecap="round" stroke-linejoin="round"/>
<path d="M4.83331 16C4.83331 15.1159 5.1845 14.2681 5.80962 13.6429C6.43474 13.0178 7.28259 12.6666 8.16665 12.6666H14.8333C15.7174 12.6666 16.5652 13.0178 17.1903 13.6429C17.8155 14.2681 18.1666 15.1159 18.1666 16C18.1666 16.442 17.9911 16.8659 17.6785 17.1785C17.3659 17.491 16.942 17.6666 16.5 17.6666H6.49998C6.05795 17.6666 5.63403 17.491 5.32147 17.1785C5.00891 16.8659 4.83331 16.442 4.83331 16Z" stroke="#FDE9E9" stroke-width="2" stroke-linejoin="round"/>
<path d="M11.5 9.33337C12.8807 9.33337 14 8.21409 14 6.83337C14 5.45266 12.8807 4.33337 11.5 4.33337C10.1193 4.33337 9 5.45266 9 6.83337C9 8.21409 10.1193 9.33337 11.5 9.33337Z" stroke="#FDE9E9" stroke-width="2"/>
</svg>
