<svg width="132" height="29" viewBox="0 0 132 29" fill="none" xmlns="http://www.w3.org/2000/svg">
<path d="M7.344 12.6C8.24 12.6 8.92267 12.3973 9.392 11.992C9.88267 11.5653 10.128 10.9253 10.128 10.072C10.128 9.26133 9.872 8.64267 9.36 8.216C8.86933 7.768 8.144 7.544 7.184 7.544C6.84267 7.544 6.55467 7.55467 6.32 7.576C6.10667 7.576 5.88267 7.59733 5.648 7.64V12.6H7.344ZM5.68 22.872C5.44533 22.936 5.072 23 4.56 23.064C4.06933 23.128 3.57867 23.16 3.088 23.16C2.59733 23.16 2.16 23.1173 1.776 23.032C1.41333 22.968 1.104 22.84 0.848 22.648C0.592 22.456 0.4 22.1893 0.272 21.848C0.144 21.5067 0.0800002 21.0587 0.0800002 20.504V5.432C0.0800002 4.984 0.197333 4.64267 0.432 4.408C0.688 4.152 1.02933 3.94933 1.456 3.8C2.18133 3.544 3.00267 3.36267 3.92 3.256C4.85867 3.128 5.79733 3.064 6.736 3.064C9.68 3.064 11.9307 3.69333 13.488 4.952C15.0453 6.21067 15.824 7.91733 15.824 10.072C15.824 11.1173 15.6533 12.0667 15.312 12.92C14.992 13.752 14.5013 14.4773 13.84 15.096C13.2 15.6933 12.3787 16.1627 11.376 16.504C10.3947 16.824 9.25333 16.984 7.952 16.984H5.68V22.872ZM32.605 15.224C32.605 16.5467 32.4023 17.7307 31.997 18.776C31.5917 19.8 31.0157 20.664 30.269 21.368C29.5437 22.072 28.669 22.6053 27.645 22.968C26.621 23.3307 25.4797 23.512 24.221 23.512C22.9623 23.512 21.821 23.32 20.797 22.936C19.773 22.552 18.8877 22.008 18.141 21.304C17.4157 20.5787 16.8503 19.704 16.445 18.68C16.0397 17.656 15.837 16.504 15.837 15.224C15.837 13.9653 16.0397 12.824 16.445 11.8C16.8503 10.776 17.4157 9.912 18.141 9.208C18.8877 8.48267 19.773 7.928 20.797 7.544C21.821 7.16 22.9623 6.968 24.221 6.968C25.4797 6.968 26.621 7.17067 27.645 7.576C28.669 7.96 29.5437 8.51467 30.269 9.24C31.0157 9.944 31.5917 10.808 31.997 11.832C32.4023 12.856 32.605 13.9867 32.605 15.224ZM21.405 15.224C21.405 16.5253 21.6503 17.528 22.141 18.232C22.653 18.9147 23.357 19.256 24.253 19.256C25.149 19.256 25.8317 18.904 26.301 18.2C26.7917 17.496 27.037 16.504 27.037 15.224C27.037 13.944 26.7917 12.9627 26.301 12.28C25.8103 11.576 25.117 11.224 24.221 11.224C23.325 11.224 22.6317 11.576 22.141 12.28C21.6503 12.9627 21.405 13.944 21.405 15.224ZM42.747 11.256C42.2137 11.256 41.7017 11.3413 41.211 11.512C40.7417 11.6827 40.3257 11.9387 39.963 12.28C39.6217 12.6 39.3443 13.0053 39.131 13.496C38.9177 13.9867 38.811 14.5627 38.811 15.224C38.811 16.5467 39.1843 17.5387 39.931 18.2C40.699 18.8613 41.627 19.192 42.715 19.192C43.355 19.192 43.9097 19.1173 44.379 18.968C44.8483 18.8187 45.2643 18.6587 45.627 18.488C46.0537 18.7867 46.3737 19.1173 46.587 19.48C46.8003 19.8213 46.907 20.2373 46.907 20.728C46.907 21.6027 46.491 22.2853 45.659 22.776C44.827 23.2453 43.675 23.48 42.203 23.48C40.859 23.48 39.643 23.288 38.555 22.904C37.467 22.4987 36.5283 21.944 35.739 21.24C34.971 20.5147 34.3737 19.6507 33.947 18.648C33.5203 17.6453 33.307 16.536 33.307 15.32C33.307 13.912 33.531 12.6853 33.979 11.64C34.4483 10.5733 35.0777 9.69867 35.867 9.016C36.6563 8.33333 37.563 7.82133 38.587 7.48C39.6323 7.13867 40.731 6.968 41.883 6.968C43.419 6.968 44.603 7.24533 45.435 7.8C46.267 8.35467 46.683 9.06933 46.683 9.944C46.683 10.3493 46.587 10.7333 46.395 11.096C46.203 11.4373 45.979 11.736 45.723 11.992C45.3603 11.8213 44.923 11.6613 44.411 11.512C43.899 11.3413 43.3443 11.256 42.747 11.256ZM63.5553 20.184C63.4486 21.1867 63.1499 21.9547 62.6593 22.488C62.1899 23.0213 61.4966 23.288 60.5793 23.288C59.8966 23.288 59.2886 23.128 58.7552 22.808C58.2219 22.4667 57.6459 21.9013 57.0273 21.112L53.8593 17.144V22.968C53.6246 23.0107 53.2726 23.064 52.8033 23.128C52.3553 23.2133 51.8966 23.256 51.4272 23.256C50.9579 23.256 50.5312 23.224 50.1472 23.16C49.7846 23.096 49.4753 22.968 49.2192 22.776C48.9632 22.584 48.7606 22.328 48.6112 22.008C48.4832 21.6667 48.4192 21.2293 48.4192 20.696V2.168C48.6539 2.104 48.9952 2.04 49.4432 1.976C49.9126 1.89067 50.3819 1.848 50.8513 1.848C51.3206 1.848 51.7366 1.88 52.0993 1.944C52.4833 2.008 52.8033 2.136 53.0593 2.328C53.3153 2.52 53.5073 2.78667 53.6353 3.128C53.7846 3.448 53.8593 3.87467 53.8593 4.408V12.856L59.3633 7.224C60.4726 7.224 61.3579 7.46933 62.0193 7.96C62.7019 8.45067 63.0433 9.06933 63.0433 9.816C63.0433 10.136 62.9899 10.4347 62.8833 10.712C62.7766 10.968 62.6059 11.2347 62.3713 11.512C62.1579 11.7893 61.8699 12.088 61.5073 12.408C61.1659 12.7067 60.7606 13.0587 60.2913 13.464L58.4353 15.064L63.5553 20.184ZM72.3305 23.512C71.0718 23.512 69.8985 23.3413 68.8105 23C67.7438 22.6373 66.8052 22.104 65.9945 21.4C65.2052 20.696 64.5758 19.8107 64.1065 18.744C63.6585 17.6773 63.4345 16.4293 63.4345 15C63.4345 13.592 63.6585 12.3867 64.1065 11.384C64.5758 10.36 65.1838 9.528 65.9305 8.888C66.6772 8.22667 67.5305 7.74667 68.4905 7.448C69.4505 7.128 70.4318 6.968 71.4345 6.968C72.5652 6.968 73.5892 7.13867 74.5065 7.48C75.4452 7.82133 76.2452 8.29067 76.9065 8.888C77.5892 9.48533 78.1118 10.2 78.4745 11.032C78.8585 11.864 79.0505 12.7707 79.0505 13.752C79.0505 14.4773 78.8478 15.032 78.4425 15.416C78.0372 15.8 77.4718 16.0453 76.7465 16.152L68.8425 17.336C69.0772 18.04 69.5572 18.5733 70.2825 18.936C71.0078 19.2773 71.8398 19.448 72.7785 19.448C73.6532 19.448 74.4745 19.3413 75.2425 19.128C76.0318 18.8933 76.6718 18.6267 77.1625 18.328C77.5038 18.5413 77.7918 18.84 78.0265 19.224C78.2612 19.608 78.3785 20.0133 78.3785 20.44C78.3785 21.4 77.9305 22.1147 77.0345 22.584C76.3518 22.9467 75.5838 23.192 74.7305 23.32C73.8772 23.448 73.0772 23.512 72.3305 23.512ZM71.4345 10.936C70.9225 10.936 70.4745 11.0213 70.0905 11.192C69.7278 11.3627 69.4292 11.5867 69.1945 11.864C68.9598 12.12 68.7785 12.4187 68.6505 12.76C68.5438 13.08 68.4798 13.4107 68.4585 13.752L73.9305 12.856C73.8665 12.4293 73.6318 12.0027 73.2265 11.576C72.8212 11.1493 72.2238 10.936 71.4345 10.936ZM85.829 17.656C85.829 18.2107 85.9997 18.6053 86.341 18.84C86.7037 19.0747 87.205 19.192 87.845 19.192C88.165 19.192 88.4957 19.1707 88.837 19.128C89.1783 19.064 89.477 18.9893 89.733 18.904C89.925 19.1387 90.085 19.4053 90.213 19.704C90.3623 19.9813 90.437 20.3227 90.437 20.728C90.437 21.5387 90.1277 22.2 89.509 22.712C88.9117 23.224 87.845 23.48 86.309 23.48C84.4317 23.48 82.981 23.0533 81.957 22.2C80.9543 21.3467 80.453 19.96 80.453 18.04V4.344C80.6877 4.28 81.0183 4.216 81.445 4.152C81.893 4.06667 82.3623 4.024 82.853 4.024C83.7917 4.024 84.517 4.19467 85.029 4.536C85.5623 4.856 85.829 5.54933 85.829 6.616V8.664H90.021C90.149 8.89867 90.2663 9.19733 90.373 9.56C90.501 9.90133 90.565 10.2853 90.565 10.712C90.565 11.4587 90.3943 12.0027 90.053 12.344C89.733 12.664 89.2957 12.824 88.741 12.824H85.829V17.656ZM91.7935 3.128C91.7935 2.31733 92.0602 1.63467 92.5935 1.08C93.1482 0.525332 93.8735 0.247999 94.7695 0.247999C95.6655 0.247999 96.3802 0.525332 96.9135 1.08C97.4682 1.63467 97.7455 2.31733 97.7455 3.128C97.7455 3.93867 97.4682 4.62133 96.9135 5.176C96.3802 5.73067 95.6655 6.008 94.7695 6.008C93.8735 6.008 93.1482 5.73067 92.5935 5.176C92.0602 4.62133 91.7935 3.93867 91.7935 3.128ZM97.4895 22.968C97.2548 23.0107 96.9028 23.064 96.4335 23.128C95.9855 23.2133 95.5268 23.256 95.0575 23.256C94.5882 23.256 94.1615 23.224 93.7775 23.16C93.4148 23.096 93.1055 22.968 92.8495 22.776C92.5935 22.584 92.3908 22.328 92.2415 22.008C92.1135 21.6667 92.0495 21.2293 92.0495 20.696V7.672C92.2842 7.62933 92.6255 7.576 93.0735 7.512C93.5428 7.42667 94.0122 7.384 94.4815 7.384C94.9508 7.384 95.3668 7.416 95.7295 7.48C96.1135 7.544 96.4335 7.672 96.6895 7.864C96.9455 8.056 97.1375 8.32267 97.2655 8.664C97.4148 8.984 97.4895 9.41067 97.4895 9.944V22.968ZM109.529 13.144C109.529 12.4827 109.337 12.0027 108.953 11.704C108.59 11.384 108.089 11.224 107.449 11.224C107.022 11.224 106.595 11.2773 106.169 11.384C105.763 11.4907 105.411 11.6507 105.113 11.864V22.968C104.899 23.032 104.558 23.096 104.089 23.16C103.641 23.224 103.171 23.256 102.681 23.256C102.211 23.256 101.785 23.224 101.401 23.16C101.038 23.096 100.729 22.968 100.473 22.776C100.217 22.584 100.014 22.328 99.8648 22.008C99.7368 21.6667 99.6728 21.2293 99.6728 20.696V11.096C99.6728 10.52 99.7901 10.0507 100.025 9.688C100.281 9.32533 100.622 8.99467 101.049 8.696C101.774 8.184 102.681 7.768 103.769 7.448C104.878 7.128 106.105 6.968 107.449 6.968C109.859 6.968 111.715 7.50133 113.017 8.568C114.318 9.61333 114.969 11.0747 114.969 12.952V22.968C114.755 23.032 114.414 23.096 113.945 23.16C113.497 23.224 113.027 23.256 112.537 23.256C112.067 23.256 111.641 23.224 111.257 23.16C110.894 23.096 110.585 22.968 110.329 22.776C110.073 22.584 109.87 22.328 109.721 22.008C109.593 21.6667 109.529 21.2293 109.529 20.696V13.144ZM124.633 6.968C125.849 6.968 126.948 7.128 127.929 7.448C128.932 7.74667 129.774 8.14133 130.457 8.632C130.884 8.93067 131.214 9.26133 131.449 9.624C131.705 9.98667 131.833 10.456 131.833 11.032V22.232C131.833 23.3627 131.62 24.3333 131.193 25.144C130.766 25.976 130.18 26.6587 129.433 27.192C128.708 27.7467 127.844 28.152 126.841 28.408C125.86 28.664 124.804 28.792 123.673 28.792C121.732 28.792 120.206 28.5253 119.097 27.992C117.988 27.48 117.433 26.6373 117.433 25.464C117.433 24.9733 117.529 24.536 117.721 24.152C117.934 23.7893 118.169 23.512 118.425 23.32C119.044 23.6613 119.737 23.9493 120.505 24.184C121.294 24.4187 122.105 24.536 122.937 24.536C124.089 24.536 125.006 24.344 125.689 23.96C126.372 23.576 126.713 22.9573 126.713 22.104V21.592C125.838 21.976 124.772 22.168 123.513 22.168C122.553 22.168 121.636 22.0293 120.761 21.752C119.908 21.4533 119.15 21.0053 118.489 20.408C117.849 19.7893 117.326 19 116.921 18.04C116.537 17.08 116.345 15.9387 116.345 14.616C116.345 13.3147 116.548 12.184 116.953 11.224C117.38 10.264 117.956 9.47467 118.681 8.856C119.428 8.216 120.302 7.74667 121.305 7.448C122.329 7.128 123.438 6.968 124.633 6.968ZM126.617 11.608C126.468 11.5227 126.244 11.4373 125.945 11.352C125.668 11.2667 125.316 11.224 124.889 11.224C123.844 11.224 123.054 11.5227 122.521 12.12C122.009 12.696 121.753 13.528 121.753 14.616C121.753 15.8533 122.009 16.7493 122.521 17.304C123.054 17.8373 123.726 18.104 124.537 18.104C125.412 18.104 126.105 17.9013 126.617 17.496V11.608Z" fill="#F26A6C"/>
</svg>
