<svg width="71" height="71" viewBox="0 0 71 71" fill="none" xmlns="http://www.w3.org/2000/svg">
<circle cx="35.6" cy="35.6" r="35.4" fill="#F26A6C"/>
<path d="M20.6938 31.4819C21.2891 31.482 21.8598 31.7182 22.2808 32.1392C22.7017 32.5601 22.9379 33.1308 22.938 33.7261L22.9507 34.2476C23.0761 36.8472 24.1377 39.321 25.9487 41.2065C27.7599 43.0921 30.1891 44.252 32.7817 44.4819L33.3022 44.5161H33.314L33.7261 44.5239H39.4077L38.5825 43.606C38.2046 43.1853 37.9998 42.6372 38.0083 42.0718C38.0168 41.5065 38.2381 40.9652 38.6284 40.5562C39.0188 40.147 39.5493 39.8997 40.1138 39.8647C40.6758 39.83 41.2305 40.008 41.6675 40.3628L41.8433 40.5229H41.8442L46.5024 45.1802C46.8165 45.494 47.0297 45.8932 47.1167 46.3257L47.146 46.5122L47.1597 46.7563V46.7944C47.1538 47.3074 46.9716 47.8023 46.645 48.1978L46.4751 48.3813L41.8442 53.0142L41.8433 53.0161C41.444 53.4189 40.9069 53.6551 40.3403 53.6782C39.7737 53.7013 39.2192 53.5091 38.7886 53.1401C38.3579 52.7711 38.0821 52.2525 38.0181 51.689C37.9543 51.1279 38.1042 50.5631 38.438 50.1079L38.6001 49.9106L39.3325 49.0132H33.7358L33.356 49.0083C29.4393 48.9111 25.7035 47.3128 22.9263 44.5356C20.0595 41.6688 18.4487 37.7804 18.4487 33.7261C18.4488 33.1309 18.6852 32.5601 19.106 32.1392C19.4744 31.7707 19.9582 31.5436 20.4722 31.4927L20.6938 31.4819ZM30.8521 17.521C31.4152 17.5009 31.9653 17.6933 32.3931 18.0601C32.8208 18.4268 33.0955 18.9409 33.1616 19.5005C33.2273 20.056 33.0818 20.6152 32.7563 21.0698L32.5962 21.27L31.8735 22.1655H37.4624C41.5166 22.1656 45.4052 23.7763 48.272 26.6431C51.1387 29.5099 52.7485 33.3984 52.7485 37.4526C52.7485 38.0479 52.5122 38.6186 52.0913 39.0396C51.6704 39.4605 51.0997 39.6977 50.5044 39.6978C49.9091 39.6978 49.3375 39.4605 48.9165 39.0396C48.4958 38.6186 48.2593 38.0478 48.2593 37.4526L48.2466 36.9312C48.1212 34.3316 47.0604 31.8576 45.2495 29.9722C43.3177 27.961 40.6824 26.7756 37.896 26.6636L37.8735 27.2056L37.896 26.6626H37.8843L37.4722 26.6558L37.4624 27.1929L37.4722 26.6548H31.7905L32.6147 27.5728C32.9928 27.9934 33.1984 28.5414 33.1899 29.1069C33.1815 29.6724 32.9593 30.2134 32.5688 30.6226C32.1784 31.0317 31.648 31.2791 31.0835 31.314C30.5208 31.3487 29.966 31.1697 29.5288 30.814L29.3384 30.6382L24.6968 25.9966L24.5571 25.8433C24.2487 25.4721 24.0665 25.0096 24.0415 24.5239C24.0131 23.971 24.1905 23.4268 24.5386 22.9966L24.7095 22.8081L28.936 18.5806L29.353 18.1685C29.7536 17.7721 30.2889 17.5411 30.8521 17.521Z" fill="white" stroke="white" stroke-width="1.1"/>
</svg>
