<svg width="23" height="23" viewBox="0 0 23 23" fill="none" xmlns="http://www.w3.org/2000/svg">
<g clip-path="url(#clip0_194_962)">
<path d="M1.13745 3.9502V9.5752H6.76245" stroke="#F26A6C" stroke-width="1.5" stroke-linecap="round" stroke-linejoin="round"/>
<path d="M3.49058 14.2627C4.09845 15.9881 5.25058 17.4692 6.77338 18.4828C8.29618 19.4964 10.1072 19.9877 11.9334 19.8826C13.7597 19.7774 15.5024 19.0816 16.8988 17.9C18.2953 16.7184 19.2699 15.1149 19.6758 13.3312C20.0817 11.5475 19.8969 9.6802 19.1493 8.01064C18.4017 6.34109 17.1317 4.95973 15.5307 4.07471C13.9298 3.18968 12.0845 2.84892 10.2731 3.10379C8.46162 3.35865 6.78206 4.19532 5.48745 5.48774L1.13745 9.57524" stroke="#F26A6C" stroke-width="1.5" stroke-linecap="round" stroke-linejoin="round"/>
</g>
<defs>
<clipPath id="clip0_194_962">
<rect width="22.5" height="22.5" fill="white" transform="translate(0.199951 0.200195)"/>
</clipPath>
</defs>
</svg>
