<svg width="18" height="18" viewBox="0 0 18 18" fill="none" xmlns="http://www.w3.org/2000/svg">
<path d="M13.4526 11.472H12.6626L12.3826 11.202C13.0076 10.476 13.4643 9.62079 13.7202 8.69763C13.976 7.77448 14.0247 6.80617 13.8626 5.86202C13.3926 3.08202 11.0726 0.862021 8.27261 0.522021C7.28823 0.397486 6.2884 0.499792 5.34964 0.82111C4.41087 1.14243 3.55806 1.67424 2.85644 2.37585C2.15483 3.07747 1.62302 3.93028 1.3017 4.86905C0.980383 5.80781 0.878077 6.80764 1.00261 7.79202C1.34261 10.592 3.56261 12.912 6.34261 13.382C7.28677 13.5441 8.25507 13.4954 9.17823 13.2396C10.1014 12.9837 10.9566 12.527 11.6826 11.902L11.9526 12.182V12.972L16.2026 17.222C16.6126 17.632 17.2826 17.632 17.6926 17.222C18.1026 16.812 18.1026 16.142 17.6926 15.732L13.4526 11.472ZM7.45261 11.472C4.96261 11.472 2.95261 9.46202 2.95261 6.97202C2.95261 4.48202 4.96261 2.47202 7.45261 2.47202C9.94261 2.47202 11.9526 4.48202 11.9526 6.97202C11.9526 9.46202 9.94261 11.472 7.45261 11.472Z" fill="#F26A6C"/>
</svg>
